<svg xmlns="http://www.w3.org/2000/svg" width="20" height="20" viewBox="0 0 20 20">
  <g id="Group_2681" data-name="Group 2681" transform="translate(-115.173 -1052.056)">
    <rect id="Rectangle_1493" data-name="Rectangle 1493" width="20" height="20" transform="translate(115.173 1052.056)" fill="none"/>
    <path id="Subtraction_4" data-name="Subtraction 4" d="M7.774,15.549a7.774,7.774,0,0,1-5.5-13.272A7.774,7.774,0,0,1,13.272,13.272,7.726,7.726,0,0,1,7.774,15.549Zm-.84-9.469a2.524,2.524,0,0,0-1.792.742L3.878,8.087a2.531,2.531,0,0,0,3.58,3.579l.721-.722a.423.423,0,0,0,0-.6.416.416,0,0,0-.3-.124.426.426,0,0,0-.3.124l-.72.723A1.688,1.688,0,1,1,4.474,8.683L5.74,7.418a1.678,1.678,0,0,1,1.195-.5q.061,0,.12,0a1.676,1.676,0,0,1,1.23.672.422.422,0,1,0,.677-.5A2.535,2.535,0,0,0,7.115,6.086C7.055,6.081,6.994,6.079,6.934,6.079Zm0,1.69a.411.411,0,0,0-.251.085.418.418,0,0,0-.166.279.411.411,0,0,0,.081.311A2.53,2.53,0,0,0,8.444,9.452c.053,0,.114.006.183.006a2.513,2.513,0,0,0,1.789-.741l1.266-1.267A2.532,2.532,0,0,0,8.1,3.87l-.725.722a.424.424,0,0,0,0,.6.423.423,0,0,0,.6,0L8.7,4.467a1.687,1.687,0,0,1,2.386,2.386L9.818,8.12a1.675,1.675,0,0,1-1.2.5c-.04,0-.08,0-.12,0a1.685,1.685,0,0,1-1.23-.672A.423.423,0,0,0,6.934,7.769Z" transform="translate(117.698 1054.264)"/>
  </g>
</svg>
