<svg xmlns="http://www.w3.org/2000/svg" width="20" height="20" viewBox="0 0 20 20">
  <g id="Group_2688" data-name="Group 2688" transform="translate(-115.173 -1082.056)">
    <path id="noun-email-1348930" d="M16.138,58.332H1.873A1.859,1.859,0,0,0,0,60.209v8.259a1.859,1.859,0,0,0,1.877,1.877H16.138a1.859,1.859,0,0,0,1.877-1.877V60.209a1.859,1.859,0,0,0-1.877-1.877ZM6.6,65.014,2.1,68.768a.462.462,0,0,1-.526-.075.371.371,0,0,1,.075-.526l4.5-3.754a.371.371,0,0,1,.525.075c.15.15.075.375-.075.526Zm9.835,3.679a.463.463,0,0,1-.526.075l-4.5-3.754a.463.463,0,0,1-.075-.526c.075-.15.375-.15.526-.075l4.5,3.754a.371.371,0,0,1,.075.526Zm-.075-8.184-6.157,4.2a2.492,2.492,0,0,1-1.2.375,2.493,2.493,0,0,1-1.2-.375l-6.156-4.2a.375.375,0,0,1,.45-.6l6.156,4.2a1.364,1.364,0,0,0,1.5,0l6.157-4.2a.371.371,0,0,1,.526.075.362.362,0,0,1-.075.525Z" transform="translate(116.467 1027.724)"/>
    <rect id="Rectangle_1494" data-name="Rectangle 1494" width="20" height="20" transform="translate(115.173 1082.056)" fill="none"/>
  </g>
</svg>
