<svg xmlns="http://www.w3.org/2000/svg" width="20" height="20" viewBox="0 0 20 20">
  <g id="Group_2687" data-name="Group 2687" transform="translate(-115.173 -1112.056)">
    <g id="Page-1" transform="translate(118.642 1115.137)">
      <g id="Social-Icons---Rounded-Black" transform="translate(0 0)">
        <g id="Facebook">
          <path id="Subtraction_1" data-name="Subtraction 1" d="M7.4,13.661H1.518A1.519,1.519,0,0,1,0,12.144V1.518A1.52,1.52,0,0,1,1.518,0H12.143a1.52,1.52,0,0,1,1.518,1.518V12.144a1.519,1.519,0,0,1-1.518,1.518h-2.7V8.517h1.7L11.4,6.54H9.444V5.276c0-.577.167-.961.98-.961l1.049,0V2.546a13.859,13.859,0,0,0-1.526-.079A2.394,2.394,0,0,0,7.4,5.082V6.54H5.692V8.517H7.4v5.144Z"/>
        </g>
      </g>
    </g>
    <rect id="Rectangle_1495" data-name="Rectangle 1495" width="20" height="20" transform="translate(115.173 1112.056)" fill="none"/>
  </g>
</svg>
