<svg xmlns="http://www.w3.org/2000/svg" width="20" height="20" viewBox="0 0 20 20">
  <g id="Group_2684" data-name="Group 2684" transform="translate(-115.173 -1202.056)">
    <path id="icons8-linkedin" d="M17.556,4H5.832A1.833,1.833,0,0,0,4,5.832V17.556a1.833,1.833,0,0,0,1.832,1.832H17.556a1.833,1.833,0,0,0,1.832-1.832V5.832A1.833,1.833,0,0,0,17.556,4ZM8.763,9.862v6.961h-2.2V9.862Zm-2.2-2.026a.976.976,0,0,1,1.1-.9.991.991,0,0,1,1.1.9.975.975,0,0,1-1.1.927A.992.992,0,0,1,6.565,7.836Zm10.258,8.987h-2.2V13.159a1.317,1.317,0,0,0-1.282-1.48h-.029c-.887,0-1.253.755-1.253,1.48v3.664h-2.2V9.862h2.2V10.8a2.744,2.744,0,0,1,2.129-.938c1.454,0,2.634,1,2.634,3.026Z" transform="translate(113.48 1200.178)"/>
    <rect id="Rectangle_1498" data-name="Rectangle 1498" width="20" height="20" transform="translate(115.173 1202.056)" fill="none"/>
  </g>
</svg>
