<svg xmlns="http://www.w3.org/2000/svg" width="20" height="20" viewBox="0 0 20 20">
  <g id="Group_2682" data-name="Group 2682" transform="translate(-115.173 -1261.056)">
    <path id="Subtraction_2" data-name="Subtraction 2" d="M8.526,13.737c-4.113,0-7.46-2.37-7.46-5.284,0-.105,0-.2.012-.284A2.084,2.084,0,0,1,0,6.34,2.125,2.125,0,0,1,2.131,4.227a2.091,2.091,0,0,1,1.249.4A9.186,9.186,0,0,1,8.162,3.2L9.4.321A.534.534,0,0,1,9.888,0a.56.56,0,0,1,.123.014l3.04.7a1.6,1.6,0,0,1,2.934.867,1.6,1.6,0,0,1-3.181.162l-2.6-.6-.894,2.08a10.261,10.261,0,0,1,2.378.455,7.753,7.753,0,0,1,2.027.976,2.116,2.116,0,1,1,2.263,3.554c.006.089.009.169.009.245C15.985,11.367,12.639,13.737,8.526,13.737ZM6.378,10.475a.538.538,0,0,0-.433.218.525.525,0,0,0,.119.738,4.22,4.22,0,0,0,4.921,0,.527.527,0,0,0,.119-.738.536.536,0,0,0-.744-.118,3.147,3.147,0,0,1-3.672,0A.532.532,0,0,0,6.378,10.475ZM11.19,6.869a1.057,1.057,0,1,0,1.066,1.057A1.062,1.062,0,0,0,11.19,6.869Zm-5.328,0A1.057,1.057,0,1,0,6.927,7.925,1.062,1.062,0,0,0,5.861,6.869Zm8.526-5.812a.528.528,0,1,0,.533.528A.531.531,0,0,0,14.387,1.057Z" transform="translate(116.611 1264.435)"/>
    <rect id="Rectangle_1500" data-name="Rectangle 1500" width="20" height="20" transform="translate(115.173 1261.056)" fill="none"/>
  </g>
</svg>
