<svg xmlns="http://www.w3.org/2000/svg" width="20" height="20" viewBox="0 0 20 20">
  <g id="Group_2685" data-name="Group 2685" transform="translate(-115.173 -1172.056)">
    <path id="noun-telegram-4137491" d="M121.995,49.942,118.876,62.8a.967.967,0,0,1-1.382.63l-3.945-2.036-1.865,3.052a.967.967,0,0,1-1.792-.5v-3.4a.972.972,0,0,1,.3-.7l7.687-7.339a.128.128,0,0,0-.2-.1L108.5,58.785l-3.082-1.59a.966.966,0,0,1,.055-1.743l15.2-6.623A.964.964,0,0,1,122,49.942Z" transform="translate(11.712 1125.123)"/>
    <rect id="Rectangle_1497" data-name="Rectangle 1497" width="20" height="20" transform="translate(115.173 1172.056)" fill="none"/>
  </g>
</svg>
