<?xml version="1.0" encoding="UTF-8"?>
<svg id="Layer_1" xmlns="http://www.w3.org/2000/svg" version="1.1" viewBox="0 0 660 62.1">
  <!-- Generator: Adobe Illustrator 29.2.1, SVG Export Plug-In . SVG Version: 2.1.0 Build 116)  -->
  <defs>
    <style>
      .st0 {
        fill: #fff;
      }
    </style>
  </defs>
  <path id="Path_1" class="st0" d="M660,4.6v-1l-10.4.2-12.2-.2v1c9.1.4,11.3,3.9,11.3,13.5v20.7c0,12.5-4.1,19.6-16.3,19.6s-14.3-7.3-14.3-18.7V12.7c0-6.8,2.2-7.7,8.3-8.1v-1l-13.2.2-13.4-.2v1c6,.3,8.3,1.1,8.3,8.1v30.3c0,14.3,11.8,17.7,22.6,17.7s20.5-6.3,20.5-20.8v-21.7c0-7,.4-11.8,6.2-13.2l2.8-.4ZM586.5,32.7l-.2,4.9c-.9,11-5,18.3-15.2,20.1-1.5.3-3,.4-4.6.3-5.6-.1-7.7-2.6-7.7-8.7V6c1.7-.4,3.3-.5,5-.6,14.6,0,21.7,9.7,22.5,24.2v3M588.3,53.8l1.8-1.6c4.7-4.5,7.4-11.1,7.4-20.7,0-20.4-14.7-28-31.6-28l-11.9.2-13.8-.2v1c6.2.3,8.3,1.1,8.3,8.2v38.1c0,6.9-2.2,7.7-8.3,8.2v.9l13.7-.2c3.1,0,6.3.2,9.4.3,2.6.2,5.2,0,7.8-.2,5.3-.4,10.4-1.9,15.1-4.6l2-1.4M537.4,4.6v-1l-9.3.2-11.6-.2v1c9.2.3,10.5,6,10.5,14.9v29.5L489.1,3.7h-14.7v1c1.7,0,3.3.2,4.9.8,4.7,1.9,5.1,8.5,5.1,13.2v25.3c0,7.3,0,14.4-8.2,15v.9c3.1-.1,6.4-.3,9.5-.3s7.5.2,11.2.3v-.9c-8.7-.6-10.3-6.5-10.3-15v-27.5l36.7,44.1h5.8V19.5c0-6.5.2-13.5,6.8-14.7l1.4-.2M471.3,59.9v-.9c-6-.4-8.4-1.2-8.4-8.2V12.8c0-6.9,2.2-7.8,8.4-8.2v-1l-13.3.2-13.4-.2v1c6.2.3,8.3,1.1,8.3,8.2v38.1c0,6.9-2.2,7.7-8.3,8.2v.9l13.4-.2,13.3.2M439.5,59.9v-.9c-5.9-.4-8.4-1.2-8.4-8.2V12.8c0-6.9,2.3-7.8,8.4-8.2v-1l-13.5.2-13.2-.2v1c6.2.3,8.2,1.1,8.2,8.2v16.9h-14.4c0,.1-10.8.1-10.8.1V12.8c0-6.9,2.1-7.8,8.3-8.2v-1l-13.3.2-13.4-.2v1c6.2.3,8.3,1.1,8.3,8.2v38.1c0,6.9-2.2,7.7-8.3,8.2v.9l13.4-.2,13.3.2v-.9c-6-.4-8.3-1.2-8.3-8.2v-19.4h12.3c0-.1,13,0,13,0v19.4c0,6.9-2,7.7-8.2,8.2v.9l13.2-.2,13.5.2M364.3,57.3l.7-.2.7-.4.4,1.8c-.3,0-.4.2-.8.3l-.3-.9-.7-.7M362.9,59.2h-1c.1-.9.4-1.6,1.3-1.6s1.2.8,1.3,1.5h-1.7M361.1,31.9h.1M361,33.1l-.3-.2c0-.2.1-.4.3-.4.2,0,.3,0,.3.3,0,0,0,0,0,0v.3c0,0-.3,0-.3,0M361.1,32.4l-.4.2-.2-.6c.2,0,.3-.2.3-.3h.1v.2l.2.4M360,31.8h-.1c0-.1.1-.3.1-.3l.2.2M359.8,32.7l-.4-.2c0-.2.2-.3.4-.3s.2.1.2.3l-.2.2M359.9,31.2v.3c-.1,0,0,.3,0,.3-.2,0-.4.1-.6.3h0c0-.1-.2-.7-.2-.7h.1l.4-.3h.2M359,58.8l.4-1c.2-.3.6-.5.9-.5.8,0,.9,1.2.9,1.7h0c0,.1-2.2-.2-2.2-.2M358.9,31.2h-.1c0-.1.1-.2.1-.2h.1M358.7,30.6v.9c.1,0,0-.1,0-.1l-.6.2v-.2c.1,0-.1-.3-.1-.3h.4M358.6,32.1h-.3c0,.1-.3-.2-.3-.2v-.2h.3c.2,0,.3.1.3.2v.2M357.9,30.6h-.1c0-.1.1-.2.1-.2h.1M357.5,30.2v.3c0,0-.3.1-.3.1.1-.2.1-.5,0-.7h.3c0-.1.2-.1.2-.1l-.3.3M357.1,59.2l.2-.2,1.1.2M357.1,30.9h.2c0-.1.2.2.2.2l-.2.3c-.2,0-.3-.2-.3-.3h0c0-.1.1-.2.1-.2M357.1,29.4v.2c-.1,0-.2-.2-.2-.2h.1M359,55.8l2.3.3c1.2,0,2.5-.2,3.6-.8l.7.7c-.9.6-2,1-3.1,1-1.1,0-5.4-.4-5.7-1.7h.1c0-.1,2.2.5,2.2.5M356.9,58.2h-.2c0-.6.2-1.6.9-1.6s.9.7.9,1.2v.7c-.1,0-.8-.1-.8-.1.1-.3.3-.6.3-.9l-.5.4-.6.3M356.5,59.9l.3-.3c2.7.5,5.4.8,8.2.9,2,0,4-1.1,4-3.4,0-.7-.3-1.4-.9-1.9.6,0,1.3.1,1.8.4.2-.2.3-.6.3-.9,0-.6-.3-1.1-.7-1.6,1.3.6,2.1,1.9,2.1,3.4,0,3.4-3.6,4.5-6.2,4.5-1.8-.1-3.7-.4-5.5-.8l-1.8-.2h-1.8M356.1,29.9h.2c.2,0,.3,0,.3.2,0,.2,0,.3-.3.3,0,0,0,0,0,0h-.2v-2.3c-.1,0,.7,1,.7,1v.6c-.1,0-.3,0-.3,0M355.3,58.9l.8-1v.2c-.1,0,.1.4.1.4M355,30.5l.2.5v.6c0,.2,0,1.2-.2,1.2s-.2-1-.2-1.2v-.6s.2-.5.2-.5M354.9,39.5v.7s-.2,1.1-.2,1.1c-.2,0-.2-1-.2-1.2s0-1.1.2-1.1l.2.5M355,23.6v.3s-.1.1-.1.1c-.2.1-.4-1.5-.4-1.8v-.4c.2,0,.3.3.4.8v1M355,35.4h.3c0,.1.1.4.1.4,0,.3-.2.5-.5.6,0,0,0,0,0,0-.3,0-.4-.3-.4-.6l.2-.3h.4M355.2,26.7l.2.3c0,.3-.3.5-.6.4-.2,0-.4-.2-.4-.4,0-.2.1-.4.4-.4,0,0,0,0,0,0h.4M354.9,42.8l.2.4c0,.3-.3.5-.6.6-.4,0-.7-.2-.7-.6s.2-.6.7-.6l.4.2M355,29.4l-.5-.5c-.4-.5-.7-1.1-.7-1.8,0-.7.3-1.4.8-1.9-.4.5-.5,1.1-.4,1.7l.2,1.4.7,1.1M354.9,33.8l-.6,1-.2,1.1c0,.7,0,1.4.4,2-.5-.5-.8-1.3-.9-2l.3-1.1.9-1M353.1,42.2l.2-.3.3-.2-.3.7M353.4,18.8h.4c0,.1.2.4.2.4,0,.3-.3.5-.6.4-.2,0-.4-.2-.4-.4v-.3c.1,0,.4-.1.4-.1M353.4,21.3l-.9-1c-.3-.4-.4-.9-.4-1.3,0-.7.3-1.3.8-1.8-.2.5-.4,1.1-.3,1.7l.2,1.3.7,1.2M353.2,31.2l-.3,1.2-.7,1c.5-.6.7-1.4.6-2.2,0-.8-.3-1.6-.8-2.2.6.4,1,.9,1.2,1.6v.6M352.8,55.6v-.7c0,0-.4-.5-.4-.5h-.4c.4-1.5,1.2-2.8,2.5-3.7,1.3,1.1,2.5,2.1,2.8,3.9h-.7l-1-1.4-1.4-1.1c.3.9.5,1.8.6,2.7,0,.8-.2,1.7-.7,2.3l-.5-.9-.7-.7M352,42.3l.5-.2c.3,0,.6.3.6.6s-.3.6-.6.6c-.4,0-.7-.2-.7-.6l.2-.4M351.9,35l-.2.9v-.8c-.1-.3,0-.6.1-.8v.7M352.4,22.7l.3.6v.6c0,.8-.3,1.5-.8,2,.3-.6.5-1.3.5-2,0-.8-.2-1.6-.8-2.1l.9.9M351.9,30.8l.4.2.2.3c0,.3-.2.6-.6.7-.3,0-.4-.3-.4-.7v-.3c.1,0,.4-.1.4-.1M351.5,41.3l.5-1,.2-1.2c0-.7-.2-1.5-.6-2.1.6.5.9,1.2,1,2,0,.4-.1.9-.3,1.2l-.8,1M351.9,28v.7c0,0-.3.6-.3.6l-.2-1.2.2-1.3c.2,0,.3.3.3.6v.7M351,42.9l1.1-1.7c.4-.5.7-1.1.8-1.7,0-1.2-.9-2.3-.9-3.7s1.9-2.7,1.9-4.3-1.6-2.4-1.6-3.9,1.1-2.5,1.1-3.9-2.5-2.1-2.5-4.8.8-1.8.6-2.8l.2.9-.3,1.9v.8c.6,1.7,2.6,2.1,2.6,4s-1.1,2.6-1.1,3.9,1.6,2.4,1.6,3.9-1.8,2.7-1.8,4.4.8,2.4.8,3.6c0,.7-.4,1.4-.9,1.9l-1.6,1.6M350.9,22.4v-.6c0-.3,0-.7.2-1v.6c.1,0-.2,1-.2,1M351.5,23.4l.4.2.2.5c-.1.2-.3.4-.6.4-.3,0-.5-.3-.6-.6l.2-.4.4-.2M352.3,56.2l-.2,1.1-.7.8h-.4l-.6-1.9M351.2,16.5l-.2.3h-.3c-.3.1-.6,0-.6-.3,0-.3.3-.5.6-.4h.3c0,.1.2.4.2.4M351.4,42.1l-.3.5-.5.2c-.4,0-.7-.3-.7-.6,0,0,0,0,0,0,0-.4.2-.8.7-.8l.5.2.3.6M355.7,44.6l.4-4.3.2-4.3v-4.9c0,.2.3.2.6.1v.2c-.1.4.2.7.6.8h.6c0-.1-.1,0-.1,0,0,.4.4.8.8.8.2,0,.5-.1.6-.3,0,0,.3.8.8.8l.6-.2c0,.4.3.6.7.7.6,0,.8-.3.8-.7s-.1-.7-.4-.7c.2-.1.4-.4.3-.6h1.5l-.2,1.9h0c-.7.8-1.5,1.2-2.5,1.5.8,0,1.6-.3,2.3-.7l-.2.7c-.5.6-1.2,1-2,1.2.6,0,1.3-.2,1.8-.6v.6c-.7.6-1.4,1-2.1,1.2.6,0,1.2-.2,1.8-.4l-.2.7c-.7.5-1.4.9-2.1,1.2.7,0,1.3-.3,1.9-.6l-.2.6-1.8,1,1.5-.3-.7,1.6c-.6.4-1.3.8-2,1.1l1.7-.5c-.5.9-.9,1.8-1,2.8l.2,1.3c-.3.6-.8,1.1-1.5,1.5.6-.2,1.2-.5,1.7-.9.4.7.8,1.3,1.3,1.9-.4.5-1,.9-1.6,1.1.7,0,1.3-.3,1.8-.8l.4.5c-.3.5-.8,1-1.3,1.2.6,0,1.2-.3,1.6-.8l.4.4c-.3.6-.8,1-1.5,1.1h.1c.6,0,1.2-.2,1.6-.7l.2.2c-.3.6-.8,1-1.5,1.2.7,0,1.3-.4,1.8-.8l.7,1.2s-.7,1.1-1.3,1.2c.6,0,1.2-.3,1.7-.7h.1c-.4.7-.9,1.2-1.5,1.3.6,0,1.2-.3,1.7-.7l.2.7c-1,.6-2.2,1-3.4.9-1.4,0-2.8-.3-4-.9,0-.5,0-1-.3-1.5h1.9c-1.2,0-2.3-.6-2.8-1.7h.9c0,.1,1,0,1,0-1.1,0-2.2-.3-3-1h1c0,.1,1.1,0,1.1,0-1.3,0-2.6-.5-3.6-1.5.6.2,1.2.3,1.8.3h1.1c0-.1-.4-.1-.4-.1-3.7,0-5.4-3.6-6.5-6.6l3.2.8,3.1,1.1M348.6,31.9h-.3c0-.1.4-.3.4-.3l.2.2M348.4,36.4l-.3-.2c0-.4.7-.6.9-.6.3,0,.8.1.8.3,0,.4-.8.4-1,.4h-.4M348.7,33.7h-.3c-.2,0-.3-.1-.3-.3h.1c0-.1.3,0,.3,0l.2.3M348.9,34h.4s.3.3.3.3c0,.3-.7.6-.9.6s-.7-.1-.7-.4.2-.3.4-.3h.5M349.1,37.2h.4c0,0,.3.4.3.4,0,.3-.8.4-1,.4v.3c0,.1,0,.8-.4.8s-.3-.7-.3-.8c0-.6.2-1,.6-1.1h.5M347.8,27.9v-.3c.4-.2.7-.3,1-.3.2,0,.7,0,.7.3s-.7.6-1,.6h-.4c0,0-.3-.3-.3-.3M348.6,40.9l.5.2.3.5c0,.3-.4.7-.8.7-.4,0-.7-.3-.8-.7l.2-.5.6-.2M347.7,58.4h3.1c-.4.3-.9.5-1.3.4h-.9c0-.1-.9-.4-.9-.4M348.6,25.8h.5c0,0,.3.3.3.3,0,.4-.8.6-1,.6s-.8-.1-.8-.4.2-.3.4-.3h.6M347.7,30.2h-.1c0-.3.2-.3.4-.4l-.2-.2c0-.3.8-.6,1-.6s.7.1.7.3c0,.6-1,.6-1.3.6v.3c-.1,0-.4,0-.4,0M348,35.1h0c0,.1-.3,0-.3,0v-.3c-.1,0-.1-.1-.1-.1h.3M347.6,57.8l.5-.9c.3-.3.6-.4,1-.4.9,0,1.1.8,1.1,1.5h0c0,.1-2.6-.1-2.6-.1M347.7,24.9l-.3-.3c0-.3.8-.6,1-.6s.7.1.7.4-.8.4-1,.4h-.4M348.1,16.2l-.3.3h-.6c-.2.1-.7,0-.7-.3s.8-.4,1-.4h.4c0,.1.2.4.2.4M346.2,29.2v-.2c0-.2.1-.4.3-.4h.1c0,.1-.1.5-.1.5l-.3.2M346.5,36.2v.2c-.1,0-.3-.4-.3-.4v-.2M346.5,37.1h.3c.2.3.2.5.2.8,0,.2,0,.9-.4.9s-.3-.7-.3-.9v-.5c0,0,.3-.3.3-.3M346.8,40.3l.5.2.3.5c0,.4-.4.7-.8.7-.3,0-.6-.2-.7-.5,0,0,0-.1,0-.2l.2-.5.5-.2M346.7,26.2l.2.5c0,.4-.2.7-.6.8,0,0,0,0-.1,0-.6,0-.9-.2-.9-.8s.3-.7.9-.7l.5.2M347,14.3l-.3.7c-.2.2-.4.3-.7.3-.7,0-1.1-.3-1.1-1l.2-.7,1.9.7M346.2,53l-1.6-.9c.7-.9,2.8-5.6,2.8-6.6,0-.4-.1-.9-.3-1.2h2.5c0-.1.9,1.8.9,1.8h-.6c-.6,0-1.2-.2-1.7-.6.7.7,1.6,1.1,2.6,1,.5,1,1.1,1.8,1.9,2.6h-.4c-1.3,0-2.5-.3-3.6-1,1.3,1,2.9,1.5,4.5,1.5l.8.8-.6.4c-1.6.1-3.1-.2-4.5-1,.9.9,2.8,1.3,4,1.6l-.7.8h-.2c-1.4,0-2.9-.4-4.1-1.1,1.2.9,2.6,1.5,4.1,1.7l-.5.7h-.2c-1.5,0-3-.4-4.2-1.2.9,1.1,3,1.7,4.2,1.8v.4c-1.3,0-2.4-.3-3.5-.7l-1.6-.7M344.7,28.1l.2.3c0,.2-.1.2-.2.3-.1-.1-.2-.1-.2-.3l.2-.3M344.7,36.9h.2c.2-.1.3.6.3.8s-.1.8-.3.8c-.3,0-.4-.7-.4-.8v-.5c.1,0,.2-.3.2-.3M344.7,36.2v.2c.1,0-.2.4-.2.4v-.4c-.1,0,0-.1,0-.1M344.3,43.8l.2-1.9,4.8.8.2,1.5h-2.7M344.2,57.2l.6-1.1c.3-.4.6-.7.9-.7.9,0,1.2,1.3,1.2,2v.2l-2.7-.4M344.8,40.1l.5.2c.2.1.3.4.3.6,0,.3-.4.7-.8.7-.4,0-.7-.3-.8-.7l.2-.6.6-.2M344.6,26.5v.4c0,0-.3.3-.3.3-.3,0-.4-.7-.4-.8,0-.2.1-.9.4-.9l.3.4v.5M343.3,53.3h0c0-.5.2-.8.4-1,2.5,2,5.4,2.5,8.4,2.7v.8h-1.1c-2.1,0-4.2-.5-6.2-1.4l-1.6-1M344.7,30.6l.7.2c.7.3,1.1,1,1.1,1.8,0,1-.8,1.8-1.8,1.9-1,0-1.8-.9-1.8-1.9,0-.7.4-1.4,1.1-1.8l.7-.2M342.9,28.6v.3s0,.2,0,.2l-.3-.4v-.2M342.8,36.4h-.1v-.2c0-.2.1-.4.3-.4h.1c0,.1,0,.5,0,.5l-.3.2M342.9,36.9h.2c.3-.1.4.5.4.8s-.1.7-.4.7-.4-.6-.4-.7v-.5c.1,0,.2-.3.2-.3M342.5,43.7l.3-1v-1c0,0,1.1.1,1.1.1l-.2,2M343.3,17.5l.3-.4.3-.2c1,0,1.6,3.4,1.6,4.1s-.4,1.8-1.6,1.8-1.6-.8-1.6-1.8l.4-2.3.5-1.3M342.8,48.4h-.3c0,.1-.2-.3-.2-.3h.6M343.3,40.1l.3.5c0,.3-.4.7-.8.7-.4,0-.7-.3-.7-.6,0,0,0,0,0,0,0-.4.3-.7.7-.8l.5.3M342.6,18.6l-.6,2.9c0,1,.8,1.9,1.9,1.9,0,0,0,0,0,0,1.3,0,1.8-.9,1.8-2s-.8-5.1-1.8-5.1-.5.3-.7.7l-.6,1.6M343.1,54.5l.3.3c.2.5.3,1,.2,1.4v.8l-1.2-.4c-.4-.2-.8-.4-.8-.7s.3-.6.6-.9l.9-.6M341.8,26.1l.6-.2c.4,0,.7.3.7.8s-.2.8-.7.8c-.4,0-.8-.3-.8-.7,0,0,0,0,0,0l.2-.6M342.2,32.6h.4c0,.1.2.4.2.4,0,.2-.7.8-.9.9l1-.2.2.2-.3,1c.2-.3.6-.5.9-.6.3,0,.3,1,.2,1.2.1-.1.6-1,.8-1s.6.8.7.9v-.2s0-.9.2-.9c.4.1.7.4,1,.7l-.3-1.1c0-.1,0-.2.2-.2l1,.2c-.2-.1-.9-.6-.9-.9s1-.4,1.1-.4c-.1,0-1.1-.1-1.1-.4s.7-.8.9-.9h-1c0,.1-.2,0-.2,0,0-.4.1-.8.3-1.1-.2.4-.6.6-1,.7-.3,0-.2-1-.2-1.2-.1.2-.4,1-.7,1-.3,0-.6-.8-.7-1v.4c0,.3,0,.8-.3.8s-.7-.3-.9-.6c.2.3.3.6.3.9,0,.2-.1.2-.3.2h-1c.2,0,1,.4,1,.8s-1.1.4-1.2.4h.7M341.3,29.8h.1c.2-.1.3.1.3.3h-.1l-.3-.3M341.6,35h-.3c0,.1-.1.1-.1.1h-.1c0-.3.3-.4.6-.4v.3M341.8,37.4v.5c0,.2,0,.8-.3.8-.4,0-.4-.6-.4-.8s0-.8.4-.8l.3.3M341.1,46.6h0c0-.1.6-.1.6-.1l-.6-.2h0c0-.1.7,0,.7,0l-.6-.3h.1c0-.1.4-.1.4-.1l-.4-.2h.1c0-.1.6,0,.6,0h.2c-.2,0-.6-.1-.6-.3h0c0-.1.8,0,.8,0l-.6-.3h.7c1.1-.1,1.5.8,1.7,1.7-.5.3-1,.5-1.6.6l-.8-.2-.7-.4M340.9,32.5l.7-.4.8-.2c-.2-.2-1.2-.7-1.2-1s.2-.2.3-.2l1.5.3c-.4-.4-.6-.8-.7-1.3h.1v-.2c.3,0,1,.6,1.3.9v-.9c-.1,0,0-.7,0-.7.6,0,.9,1,1,1.2.1-.1.6-1.3.9-1.3s.1,1.3.1,1.7c.3-.3.8-.9,1.2-.9v.3c0,.4,0,.9-.3,1.2.3-.2.7-.3,1.1-.3.3,0,.4,0,.4.2.3-.2.6-.3.9-.3.2,0,.7,0,.7.4s-.8.4-.9.4c-.2,0-.8-.1-.8-.3-.3.4-.7.7-1.1.8.5,0,1,0,1.5.3l.8-.2c.2,0,.7.1.7.4s-.8.4-1,.4-.6,0-.7-.2c-.3.2-.7.3-1.1.3.2.1,1.1.7,1.1,1,0,0,0,.2-.4.2-.4,0-.9-.1-1.2-.3.4.4.6.8.7,1.3l-.2.2c-.4,0-1-.6-1.2-.9v.8c0,.1,0,.8-.1.8-.4,0-.8-1-.9-1.2-.1.2-.4,1.2-.9,1.2s-.1-1.2-.1-1.5c-.3.4-.8.7-1.3.8v-.2c-.1-.3.3-.9.6-1.3l-1.5.3h-.2c0-.1-.1-.1-.1-.1,0-.3,1-1,1.2-1.1l-.8-.2-.6-.4M340.7,46.9h.1c1,.8,2.6.8,3.6-.1h.1c0,.7-1.6,1.1-1.9,1.1-.7,0-1.3-.3-1.8-.7h.4c0,.1-.6-.3-.6-.3M341.6,13l.7.3.3.7c0,.6-.4,1-1,1,0,0,0,0,0,0-.6,0-1.1-.4-1.1-1,0-.3.1-.5.3-.7l.8-.3M341.2,40.2l.2.5c0,.3-.3.8-.7.8-.4,0-.7-.4-.8-.8,0-.3.4-.7.8-.7l.5.2M341.2,33.1v.3c-.3.1-.5.2-.8.2-.2,0-.9-.1-.9-.4s.6-.4.8-.4h.5c0,.1.4.4.4.4M341.1,26.7l-.3.2h-.4c-.3,0-.6,0-.9-.2v-.2c-.1,0,0-.2,0-.2l.6-.2c.3,0,.7.1.9.4v.3M341.1,29.9l-.3.3h-.4c-.3,0-.7,0-.9-.3v.6-.8c-.1,0,0-.1,0-.1.1-.2.4-.2.7-.2.3,0,.6.1.8.3v.3M341.1,34.9l-.3.3h-.4c0,0-.9-.1-.9-.1v-.2c-.1,0,0-.2,0-.2h.6c.3-.1.6,0,.9,0v.3M339.5,28l.3-.2h.3c.3,0,1,0,1,.4s-.7.3-.8.3h-.8c0-.1-.2-.4-.2-.4h.2M339.5,21.5l.5-.3h.7c.4,0,.8,0,1.1.3v-.7l-.7-.2-.9.2c-.4,0-.8-.2-.8-.7,0-.5.4-.9.9-.9,0,0,0,0,0,0,.7,0,1.3.3,1.7.9v-.8c-.3-1.1-1.7-.1-1.7-1.2s.3-.4.7-.4c.5,0,1,.4,1.2.9l.2-.4c-.2-1-1.3-.2-1.3-1.2,0-.2.2-.4.4-.4.6,0,.9.4,1.2.9v-.4c-.1-.7-.8-.4-.8-1l.2-.3c.6,0,.8.6,1,.9.1-.2.2-.2.3-.2v-.9c-.1-.2,0-.4.2-.4s.3.1.3.4l-.2.8c.2.1.3.1.4.3.1-.3.4-.9.8-.9h.2c0,.1.1.4.1.4,0,.3-.7.2-.8.9v.6c.2-.6.7-1,1.2-1,.2,0,.5.3.5.6,0,.6-1,.2-1.3,1l.2.6c.3-.4.9-1,1.5-1,.3,0,.5.3.6.6,0,.8-1.5.2-1.8,1.1v.7c.5-.4.9-.6,1.5-.7.6,0,1.1.3,1.1.9,0,0,0,0,0,0,0,.3-.2.6-.6.7l-1.3-.2h-.4c0,.1.1.9.1.9.3-.2.7-.4,1.1-.4.7,0,1.3.5,1.3,1.2,0,.4-.2.7-.6.7-.6,0-.9-.7-1.6-.7h-.6v.4c.6,0,1.6.4,1.6,1s-.8,1.1-1.2,1.1-.6-1.1-1.2-1.5l-.6.2c.3.2.5.5.6.9,0,.6-.4,1-1,1,0,0,0,0,0,0-.5,0-.9-.4-.9-.9,0,0,0,0,0,0,0-.5.2-.9.7-1h-.6c-.9.1-.8,1.3-1.3,1.3s-1.2-.7-1.2-1c0-.7,1.2-1.1,1.8-1.1l-.2-.4h-.4c-.9,0-1,.7-1.7.7l-.3-.2c-.2-.1-.3-.3-.3-.6l.3-.7M339.5,36h.3c.3,0,1,0,1,.4s-.5.5-.7.5l-.7-.2c-.2,0-.4-.1-.4-.3l.4-.3M339.5,24.4l.5.2c.2.1.4.2.4.4,0,.3-.7.3-.9.3-.3,0-.8-.1-.8-.6l.3-.3h.5M339.5,17.8h.3c0,.1.1.3.1.3,0,.2-.3.3-.4.4h-.3c-.2,0-.9-.1-.9-.4s.2-.4.5-.4h.7M339.5,16.1h.2c0,.1,0,.3,0,.3l-.2.4h-.4c-.2,0-.9-.1-.9-.6s.4-.3.7-.3h.7M339.5,14.6l.2.3h-.2c0,.1-.6.2-.6.2-.3,0-1-.1-1-.4s.4-.3.7-.3h.4s.4.2.4.2M339.4,40.6l-.2.5-.6.3c-.3,0-.7-.4-.7-.8,0-.4.3-.6.7-.7l.6.2.2.5M339.4,13.1l-.3.3h-.4c-.3.1-1,0-1-.5s.6-.3.7-.3c.3,0,.6,0,.9.2v.2M337.5,36.3v.7s-.2.6-.2.6c-.1,0-.1-1.1-.1-1.2s0-1.2.1-1.2l.2.6v.7M337.7,32.1l.2.4c0,.3-.2.5-.5.6,0,0,0,0,0,0-.3,0-.5-.3-.4-.6,0-.2.2-.6.4-.6l.4.2M339.5,32.2h.2c0,.1-.2.1-.2.1-.3.1-.6.2-.6.6,0,.4.2.7.6.9h.2c0,.1-.2.1-.2.1-.3.1-.7.3-.7.6,0,.4.3.8.7,1h.1c0,.1-.1.1-.1.1-.3.1-.9.1-.9.7s.4.7.7.8c-.3.2-.8.4-.8.8,0,.3,0,.5.3.7.1-.4.4-.7.7-.9h.4c0-.1.4.1.4.1,0,.4-.7.9-.9,1.1v.2h.3c.6.1.7-.3.8-.7.1.4.5.7.9.8.4,0,.7-.3.8-.8,0,.4.3.9.7.9.6,0,.8-.4.9-.9.2.3.4.9,1,.9s.7-.6.7-.9c.1.5.6.9,1.1,1,.3,0,.6-.3.8-.6.1.3.3,1,.8,1,.4,0,.7-.3.8-.7.1.3.3.7.7.7.4,0,.7-.4.7-.8,0-.6-.7-.7-1.1-.6.2-.4,1.2-.4,1.2-1s-.7-.7-1.2-.7c.3-.4,1.2-.4,1.2-1.1s-1-.6-1.3-.6c.3,0,1.2-.6,1.2-1s-.9-.7-1.2-.7c.3-.2,1.2-.6,1.2-1s-.3-.7-.8-.7c.5-.1.8-.5.8-1,0-.4-.6-.7-.9-.7.2-.2.8-.6.8-1s-.4-.6-.8-.6c.4-.2.7-.6.8-1.1,0-.3-.8-.6-1-.7.3-.1.9-.4.9-.9s-.7-.7-.9-.7c.2-.2.9-.6.9-1.1s-.7-.6-.9-.6c.4-.2.6-.6.7-1,0-.4-.8-.7-1.1-.7.4-.2.6-.6.7-1,0-.4-.7-.6-.9-.7.4-.1.7-.5.8-.9,0-.6-.8-.7-1.2-.7.3-.2.8-.6.8-1s-.8-.6-1.1-.7c.3-.1.9-.7.9-1s-.4-.6-.7-.6l.3-.6.9.2c1,5.7,1.6,11.5,1.8,17.3,0,2.8,0,5.8-.2,8.6-3-.8-6.1-1.3-9.2-1.3h-2.1l-1.8.2c.4-2.6.7-5.2.7-7.8v-.8c0-6.4-.7-12.8-1.9-19.1h1.6c0,.1-.6.4-.6.4l-.3.2v.3c-.1.7.4.8.9.9-.3.1-.9.4-.9.8s.8.9,1.2.9c-.3.1-1,.4-1,.8,0,.6.8.8,1.1.9-.2.1-.8.3-.8.7s.7.9,1,.9c-.4.1-.7.5-.8.9,0,.4.7.7,1,.8-.3.1-1,.3-1,.9s.7.7,1.1.8c-.3.1-.9.4-.9.8s.7.9.9,1c-.2.1-.7.4-.7.8s.7.7.9.8c-.2.2-.9.6-.9.9s.7.8,1,.9c-.3,0-.8.3-.8.7s.4.8.9.9h.1c0,.1-.1.1-.1.1-.4.1-.8.2-.8.7l.2.6.6.3h.1-.1c-.3.1-.8.4-.8.7l.3.5.5.5v-.9c-.1,0,0-.1,0-.1h.7c.2-.1.9,0,.9.3s-.6.3-.7.3c-.3,0-.7,0-.9-.3v.7M336.5,58.2v-.3s0-.4,0-.4c1-.1,2-.2,3-.1l3.7.6,2.8.7c1,.5,2.1.8,3.2.9h.2c2,0,3.2-1,3.2-3.1.4.5.6,1,.7,1.6v1.1c1.4-1.2,2.2-3.1,2-5,.6.6.9,1.4.9,2.2,0,1.1-.6,2.2-1.5,2.9l1.7-.3h.1c0,.1-1,1.1-1,1.1-1.1.8-2.4,1.2-3.7,1.2-2.5,0-4.5-1.1-6.8-1.8-1.8-.6-3.7-1.1-5.6-1.2h-.6c0-.1-1.3,0-1.3,0l-1.1.3M337.5,30.5l-.7,1-.2,1.1c0,.7.2,1.3.6,1.9-.5-.5-.8-1.3-.8-2,0-.6.2-1.2.6-1.6l.5-.4M337.6,24.1v.4c-.1,0-.4.2-.4.2l-.6-.2c.1.7.5,1.4,1,2-.8-.5-1.3-1.4-1.3-2.4,0-.7.3-1.3.8-1.8-.3.5-.5,1.1-.4,1.7,0-.2.2-.3.6-.3h.3c0,.1.2.4.2.4M336.1,40.3l.5-.2c.3,0,.5.3.5.6,0,.3-.2.5-.5.5-.3,0-.6-.2-.7-.6l.2-.4M336.3,14.9l.3.2v.4c.1.2,0,.4-.3.4-.3,0-.5-.2-.6-.4l.2-.4.4-.2M336.2,39.4h.3c0,.1.1.4.1.4h0c0,.1-.1,0-.1,0-.3,0-.7.2-.7.4l-.2-.4.2-.3h.4M336.2,38l.7-.3c-1,.7-1.6,1.8-1.7,3v-1c-.1-.5,0-.9.4-1.3l.6-.4M335.9,52l-.8.5c.1-1.1,1-1.9,2.1-1.9.9,0,1.8.6,2.2,1.3.2.4.4.9.3,1.3,0,.5,0,1.1-.3,1.6-.4.8-.8,1.5-1.5,2.1l-1.6.3c0-.5-.3-.9-.7-1.1,1.2-.3,2.7-.9,2.7-2.2.1-1.1-.7-2-1.7-2.1,0,0,0,0,0,0l-.8.2M336.3,17.5l-1-1c-.2-.4-.4-.9-.4-1.3,0-.6.2-1.2.7-1.7-.2-.4-.3-.8-.3-1.2v-.3c.3.4.5.9.6,1.5v.3c-.1,0-.2-.1-.2-.1-.2.4-.3.9-.3,1.3,0,.7.2,1.4.6,2.1l.4.5M336,28l-.2,1-.7.9c.4-.6.6-1.2.6-1.9,0-.8-.3-1.5-.8-2.1l.8.9.3,1.2M335.3,19.5l.3,1.2c0,.8-.3,1.5-.9,2,.4-.6.6-1.3.6-2,0-.8-.3-1.5-.8-2.1l.8.9M334.9,27.4l.3.2v.4c.1.2,0,.6-.3.6-.3,0-.4-.3-.4-.6v-.4c.1,0,.4-.2.4-.2M334.6,29.6l.2.5v.7c0,.1,0,1.1-.2,1.1l-.2-1.1.2-1.2M334.7,40.7h.5c0,.1.2.4.2.4,0,.4-.2.6-.7.6-.3,0-.5-.2-.6-.5,0,0,0,0,0,0l.2-.3h.4M334.1,58.9l.3-.9c.1-.3.4-.5.7-.5.3,0,.6.2.8.4-.2.3-.5.5-.8.6l-1,.4M334.6,24.6v.7c0,0-.2.6-.2.6-.2,0-.3-1.1-.3-1.2s.1-1.2.3-1.2l.2.6v.7M334.9,34.5l.3,1.2c0,.7-.3,1.5-.8,2,.4-.6.6-1.3.6-2,0-.8-.3-1.6-.9-2.1l.5.4.3.5M334.9,20.3l.2.4c0,.3-.3.5-.6.6-.3,0-.5-.3-.6-.6,0-.3.3-.5.6-.6l.4.2M334.6,35.7v.4c-.1,0-.4.2-.4.2-.2,0-.4-.3-.4-.6,0-.3.2-.5.4-.6l.3.2v.4M335.4,17.9l.9,1c.3.4.4.8.4,1.3,0,1.5-1,2.6-1,3.8s1.5,2.5,1.5,4-1.8,2.7-1.8,4.4,1,2.2,1,3.6-1.7,2.5-2.5,3.6c.4-1,1.9-2.6,1.9-3.5,0-1.3-.9-2.4-.9-3.7,0-1.9,1.7-2.8,1.7-4.4s-1.5-2.3-1.5-4,1-2.3,1-3.7c0-2-2.6-2.1-2.6-4.9s.8-1.8.6-2.7c.2.2.3.5.3.8,0,.7-.3,1.2-.3,1.9,0,.5.1,1,.4,1.4l.9,1M333.2,46.6v-.3c1.4-.6,2.2-2,1.9-3.4,1.4.6,2.9.9,4.4,1.1l2.8.2v.2c-.9.3-1.5,1.1-1.6,2-.2,0-.3.3-.3.4,0,.7,1.2,1.2,1.7,1.2,0,.3.1.7.4.7s.6-.3.6-.7c.6,0,1.8-.6,1.8-1.2,0-.2-.2-.4-.4-.4,0-1-.7-1.8-1.7-2h0c1.4,0,2.8,0,4.1-.1v.2l-.3,1.8c-.6,1.9-1.8,3.9-2.3,5.7l-.4-.2c-.7,0-1.1.9-1.1,1.5l.3.7c-.9.2-2,1.1-2,2.1s.4.8.8,1h-2.4c0-.1-1.1-.1-1.1-.1l1.1-1.2c.6-.7.9-1.6.9-2.5,0-.9-.3-1.7-.9-2.3-.6-.6-1.4-.9-2.2-.9-1.7,0-2.2,1.2-2.2,2.7v.6c.3-.6.9-.9,1.6-.9.7,0,1.3.5,1.3,1.3,0,0,0,0,0,0,0,1.1-1.3,1.9-2.1,2.2h0c0-.8-1.3-1.1-1.9-1.2-.6-1.5-.9-3.2-.8-4.8v-1.7s.1-1.7.1-1.7M333.2,13.9v.4c-.4-.4-.6-.9-.6-1.5v-.3l.4.7.2.7M333.2,38.9v.3c.1.3-.1,1.8-.4,1.8s-.2-.2-.2-.3c0-.5.2-1.1.4-1.5l.2-.2M333.4,41.4l.2.4c0,.3-.3.6-.7.6-.3,0-.5-.2-.6-.5,0,0,0,0,0,0,0-.3.3-.5.6-.6l.5.2M331.3,59.6l.4-.6c.2-.2.4-.4.7-.4.4.1.9.3,1.2.6l-2.3.4M330,24v-.4c0,0-.4-.2-.4-.2h-.1c0,.1.2.9.2.9l-.2,1,.4-.6M330.7,13.2l-.6-.2-1.1-1.9.7.3M328.8,58.3h-.3v-.9c1.9,0,4.8-.2,5.7-2.1.3.1,1,.3,1,.7,0,1.4-2.9,2-4.9,2.2h-1.5M328.9,22.5v-.6c-.2-.2-.3-.3-.4-.3h-.2c0,.1-.1.2-.1.2,0,.2.4.4.4.9,0,.6-.2,1.1-.4,1.7l.6-.9.2-1M328.6,59.7l-.6-.2c.2-.7.4-.7,1.2-.7.6,0,1.1.4,1.2.9h-1.9M329.2,12.9l-.9-.2-1.5-1.8h1.2M325.7,9.3l.2.4v.4s-.3.1-.3.1c-.5,0-.9-.5-.8-1,0,0,0,0,0,0h.2c0-.1.3,0,.3,0l.3.3M324.9,11.1l1.2-.2,1.3,1.7h-1.1M324.7,13l-1.5-1.3.9-.4,1.5,1.6M322.1,12.3l.7-.4,1.3,1.5-.7.3M322.7,8.5h.5c.7-.1,1.3.4,1.5,1.1,0,.7-.7,1.3-1.5,1.2-.7,0-1.3-.5-1.3-1.2,0,0,0,0,0,0,0-.3.2-.7.4-.9l.4-.3M323.4,30.6l1.2-.7c.7-.6,1.3-1.3,1.8-2.1-.4.3-.9.6-1.2,1-1,.8-2.1,1.4-3.2,1.8v-.6c-.1,0,.1-.8.1-.8,1.6-.8,2.7-3.5,3.5-3.4h.2c1.3,1,2.7,2.1,3,3.8.7-1.3,2-1.7,2.5-3.2.5-1.6.8-3.2,1-4.8l1.6-2.2.2,6.3v.6l-1.4,2.2c-1.5,2.3-3.4,4.3-5.6,5.8-1.1.7-2.8,1.7-4.1,1.7s-1-.1-1-.7c0-.3.2-.7.4-.9,3.1-.3,4.6-1.3,5.8-4.1-1.1,1.7-3.8,3.6-5.8,3.6h-.1v-.2c0-.4,0-.7.3-1,2.4-.2,4.3-.8,5.1-3-.7,1.3-4,2.3-5.5,2.7-.2,0-.4-.3-.4-.6,0-.3.2-.6.4-.8l1.3-.3M322.2,14.4l-1.1-1.2.4-.4,1.3,1.2M322.4,8.1l-.3.3h-.5c-.2.1-.8,0-.8-.3s.6-.5.8-.5h.5c0,0,.3.5.3.5M320.6,13.7l1.2,1.2c-.3.2-.6.6-.9.7l-.9-1.3.6-.6M320.5,10.3l.9.3c.2.2.4.5.4.8,0,.6-.6,1.1-1.2,1-.6,0-1.1-.4-1.1-1,0-.3.1-.6.3-.8l.8-.3M320.4,16.1l-.9.6-.6-1.8c.2,0,.4-.1.6-.3l.9,1.6M318.8,58.4v-.8c0,0,0-.7,0-.7,1.3,1.2,2.7,2.3,4.7,2.3s2.7-.3,2.7-1.8c0-.5-.2-1-.4-1.3,1,0,2.2.4,2.2,1.7,0,2-2.3,2.9-4,2.9-1.4,0-2.9-.5-4-1.4l-1.2-.9M319.2,12.5l.2.2v.4c0,.6-.5,1-1,.9-.5,0-.8-.4-.9-.9,0-.6.6-.8,1-.8l.7.2M318.9,16.9l-.8.4-.7-1.8.8-.3M317.6,8.1h.6c.6.3,1.3.7,1.3,1.3s-1.1,1.3-1.9,1.3-1.8-.4-1.8-1.3c0-.7.6-1.2,1.2-1.3h.6M317.6,17.5h-1.2c0,.1-.6-1.7-.6-1.7l1.1-.2M317.3,14.3v.4c-.2.3-.6.5-.9.4-.4,0-.8-.3-.8-.7,0,0,0,0,0,0,0-.3.4-.7.8-.7l.6.2.3.5M317,52.9l-1.3-.4c.2-.7.9-1.2,1.7-1,.6.2,1,.7,1,1.3v.2l-1.4-.2M315.4,8l-.3-.3c0-.3.6-.6.8-.6s.7.2.7.6-.4.4-.7.4h-.5M315.1,53.1l1.6.4,1.6.2c.6,0,1.3-.1,1.3-.8,0-.5-.2-1-.4-1.5.3-.1.5-.5.4-.8,0-.5,0-.9-.3-1.3h-.8l.3-1c.8-2.1,3-2.2,5.2-2.5l1.3-.3c.6,2.8.1,8.2,1.5,10.5h-.3c-.6,0-1.1,0-1.7.2.7.2,1.2.6,1.2,1.2,0,1.1-1.7,1.5-2.5,1.5-2.2,0-3.5-1.6-5-2.9-.5-1.2-1.5-2.1-2.8-2.5l-.6-.3M315.2,20.3h-.2c0-.1.2-.3.2-.3l.3.2M314.3,60.2l1-.5c.3-.2.5-.5.5-.8,0-.4-.2-.7-.4-.9.9-.3,1.5-1.2,1.5-2.1,0-.6-.1-1.1-.4-1.6,1.3.8,2,2.1,2,3.6,0,1.6-1.3,2.1-2.7,2.2h-1.3M315.7,17.7h-1.1l-.4-1.6,1-.2M313.9,20.2l.3-.4c.5-.2,1-.4,1.5-.4l-1.8.8M315,10.3v.3c-.1.7.7,1.2,1.3,1.2.4,0,.7-.2,1-.4.1.9-1,1.6-1.8,1.6s-1.8-.6-1.8-1.3c0-.3.1-.6.4-.9l.9-.5M314.8,15.1l-.3.3h-.4c-.3.1-.8,0-.8-.3s.4-.6.8-.6l.4.2.3.4M314.9,8.6v.4c0,.5-.4.8-.8.8-.4,0-1-.3-1-.8,0-.5.5-.9,1-.9l.6.2.2.3M315.2,20.9l.5-.2v-.6c.7-.2,1.3-.7,1.2-1.3h0c-.3.5-1.1.2-1.7.2-.9,0-2.1.7-2.1,1.8l.3-.2.6.2h.4c0-.1.8.1.8.1M313.5,16.2l.3,1.6h-1c0,.1-.5-1.5-.5-1.5M312.4,37.1v-.7c-.1,0,.5,1.1.5,1.1M312.2,51.5l.2-.4c.3-.3.8-.5,1.2-.5.6,0,1.2.4,1.3,1,0,.1,0,.2,0,.3v.4l-2.8-.9M312,46.7l.5-1.1c2.8-5.4,9.9-5.5,9.7-9.2h.9c1.6.1,3.8-1.2,4.9-2.1,2.6-2.1,4.7-4.8,5.9-7.9,0,5.8-1,11.6-2.7,17.1,2.6-1.3,5.4-2,8.3-1.9h2.8c0,.1-.4,2-.4,2h-2.4c0-.1-4.4-.8-4.4-.8v-.4c-.1,0-.1.6-.1.6,0,.8-1,2.9-2.1,3v.2c-.7.4-1.4.7-2.1.9.6,0,1.3-.2,1.9-.3v1c-.1,0-2.1.7-2.1.7l2-.2v.7c-.6.4-1.3.7-1.9.8h1.9c0-.1,0,.4,0,.4-.6.3-1.2.6-1.9.8l1.9-.2v.6c-.5.5-1.2.8-1.9.9h.3c.6,0,1.1-.1,1.7-.3v.4c-.5.5-1.2.9-2,1,.8,0,1.5-.1,2.2-.4.3.7.6,1.4,1,2.1-1.1,1.7-3.8,2-5.6,2-.3-.6-.8-1-1.5-1-1.3-3.9-.1-8.2-1.6-12.5-.7-1.6-1.1-3.2-1.3-4.9v.3c0,1.9.4,3.7,1,5.5h-.2c-.4-.3-.7-.9-.8-1.5v.2c0,.7.2,1.4.6,1.9l-.4.3c-.7-.5-1.2-1.3-1.2-2.2v.6c0,.6.3,1.3.7,1.8h-.4l-.6-.4c-.6-.5-.9-1.3-.9-2v.3c0,.8.2,1.6.8,2.2-.7,0-1.5.2-2.1.6-.8-.5-1.3-1.4-1.3-2.3v.4c0,.8.3,1.6.9,2.1l-.3.2c-1-.2-1.5-1.5-1.7-2.3,0,1,.4,2,1.2,2.7-.5.7-.7,1.6-.7,2.5-1.7,0-3.5-.6-5-1.4l-1.3-1.2M311.8,9.9l.6-.2c.4,0,.7.3.7.6s-.3.7-.6.7c0,0,0,0,0,0-.4,0-.9-.2-.9-.7l.3-.5M312,15l.3.2v.4c.1.1,0,.3-.3.3-.2,0-.4-.1-.4-.3v-.4c.1,0,.4-.2.4-.2M312.4,12.4v.3c-.1.8.6,1,1.2,1h.7c-.1.6-.9.8-1.5.8s-1.6-.2-1.6-1c0-.3.1-.5.3-.7l.8-.4M312,47.6l.8.6c1.8,1.1,3.9,1.7,6.1,1.6v.7c.1.4-.1.4-.6.4-2,0-6.7-1.3-7.3-3.5,0-.2.1-.6.3-.6l.6.7M311.7,16.5l.4,1.6-1.1.2-.3-1.5M311.7,12l-.2.4-.5.2c-.2,0-.7-.2-.7-.6s.4-.6.7-.6l.5.2.2.4M309.9,15.7h.4c.2-.1.4,0,.4.3,0,0,0,0,0,0,0,.2-.2.4-.4.4-.3,0-.5-.2-.6-.4l.2-.3M309.6,30.6h-.1.3M309.5,49.8l.4-.6.6-.4c.6.2,1.1.8,1.1,1.5l-.2.9-1-.6-.9-.8M310,12.8h.3c0,.1.1.4.1.4,0,.2-.1.4-.4.5,0,0,0,0,0,0-.2,0-.6-.1-.6-.5l.2-.3h.4M309.7,19.7l-.3-.2c0-.2.2-.3.3-.3.1,0,.2.1.2.3l-.2.2M310.1,16.9l.3,1.5-.9.3-.3-1.3M309.1,14.1v.2c.1.3,0,.6-.3.6-.3,0-.5-.3-.4-.6,0-.2.2-.3.4-.3h.3M309,16.2l.2.3c0,.3-.2.5-.6.5-.2,0-.4-.1-.4-.4,0,0,0,0,0,0,0-.2.1-.4.4-.4,0,0,0,0,0,0h.4M308.9,18.9l-.8.3-.3-1.2.7-.4M307.5,15.2h.4c0,0,.2.3.2.3,0,.3-.2.5-.5.6,0,0,0,0,0,0-.3,0-.5-.3-.5-.6v-.3c.1,0,.5,0,.5,0M307.5,20.4v.3c.1.2,0,.2-.3.2s-.2,0-.2-.2.1-.3.2-.3h.3M307.6,19.6l-.5.2-.5.3v-1.3c-.1,0,.7-.6.7-.6M307.4,17.5v.3c-.1,0-.4.1-.4.1-.3,0-.5-.2-.6-.4,0-.3.2-.5.5-.6,0,0,0,0,0,0l.3.2v.4M305.7,20.8l-.3-.3c.1-.6.1-.9.6-1.1v1.1c.1,0-.2.3-.2.3M305.1,55.5l.2-.5.7-.3c1.7-1.1,3.7-1.8,5.8-1.9,1.8,0,4.4.7,4.4,2.9,0,1.1-.9,2-2,2,0,0,0,0,0,0-.6,0-1.2-.2-1.8-.4.9,0,1.6-.8,1.7-1.7,0-1.3-1.6-1.6-2.6-1.6-2,0-3.9.6-5.5,1.7l-1.1.7-.2-.3.5-.5M305,22.9h-.9c.2-.7.6-1.2,1-1.7v1.7M304.8,27.6h-1.2c.6-1.3,1.1-2.6,1.6-3.9h.3c.2.1.5,0,.6-.2v-1.4l-.3-1.1h.3c0-.1.8-.7.8-.7v.6c-.1.3.3.7.7.7.4,0,.8-.3.8-.7,0-.4-.3-.8-.7-.8h0l1.8-.8v.2c-.1.4.2.7.6.8.4,0,.7-.3.7-.8l-.4-.6c3-.9,6.6-.4,9-1.6,3.6-1.7,3-3.9,8.2-4.4v.3c.1.2,0,.5-.2.6.8-.2,1.6-.3,2.5-.2,2,0,3.7,1.7,3.8,3.7v1.2c-.5-.5-1-.9-1.6-1.1-.1-1.5-1-3.2-2.7-3.2-3.2,0-1.2,3.5-3.9,5.5.9-.2,1.6-1.7,1.8-2.6.8.2,1.4.8,1.7,1.6,0-1-.6-1.8-1.5-2.2l.2-.6c.7.5,1.4,1.1,1.9,1.8-.3-.8-.8-1.6-1.3-2.2l.6-.3c.6.5,1.1,1.1,1.5,1.8-.2-.7-.5-1.3-.8-1.9,0,0,2.2,1.3,2.2,2.8.7,0,1.3.5,1.6,1.1-.3.9-.8,1.8-1.5,2.5h0c-.1,1.6-.4,3.1-.9,4.6-.4,1.3-1.6,2.1-1.9,3.4-1.1-4.5-4.7-3.2-4.7-8.2,0-.8.1-1.6.3-2.3-.5,1-.8,2-.9,3.1,0,.9.3,1.7.8,2.5,0,1.1-.5,2.2-1.2,3.1v-.9c.1,0,.1-.6.1-.6l-.4,1.9c-.3.2-.6.6-1,.7l.3-1.3-.8,1.6-.7.3.2-1.2c-.1.5-.4.9-.7,1.2h-.6c0,.1.1-.7.1-.7v-.5c0,.4-.2.9-.4,1.2h-.7c0,.1.2-1.2.2-1.2l-.6,1.3h-.6c0-.1.3-1.5.3-1.5l-.7,1.3h-.7c.2-.6.3-1.1.3-1.6-.1.5-.3,1-.7,1.5h-.9c.3-.6.5-1.2.6-1.9-.1.7-.5,1.4-1,1.9h-.3c-1.6,0-2.9,1.2-3.8,2.1,0-.8,2.2-3,2.2-5.4v-.7c-2.2,1.2-4.6,2-7.1,2.1h-1.2M302.7,29.6l1.7.5,1.7.3,3.1.2v.2l-1.5,1.9c-.5,0-.9-.3-1.2-.6.3.4.6.6,1,.8l-.3.6c-.4,0-.8-.1-1.1-.3l.9.7-.3.4-.6-.2-.7-.2.7.4.4.2-.2.7h-.2c-.4,0-.8,0-1.1-.3.3.3.7.6,1.1.7h.1v.6c-.1,0-.1-.3-.1-.3v.4c-.5,0-.9-.2-1.2-.4.3.4.7.6,1.1.8v.3c-.4.1-.9.1-1.3,0,.4.2.8.3,1.2.2v1.3c-.3.2-.7.3-1.1.3h.4c.3,0,.5,0,.8-.1v.2c.1,0,.3.3.3.3l-.9.9c.2-.1.6-.2.7-.4l.4-.2.6.2c-.2.4-.4.7-.8,1,.4-.2.8-.5,1-.9h.4c0,.1,1-.1,1-.1.2,0,.4.3.4.6v-.7c-.1,0,.1-.1.1-.1l.4.4-.2-.7h.2c0-.1.2.4.2.4v-.6c-.1,0,1.1-1,1.1-1,0,.2.2.4.3.4l-.3-.8c0-.3.2-1.8.6-1.9l.3.3c.1,1.1.7,2,1.9,2s1,0,1,.2c-.1,1.2-3.1,1.9-4.1,2.1h.9c-1,1.5-2.7,2.5-4.5,2.6l-1.1-.2c-3.5-.8-4.5-4.1-4.5-7.5l.4-2.9.8-2.9M302.4,27.7l1.2.3h1.4c0,.1,1.1.1,1.1.1,2-.2,3.9-.6,5.7-1.5l.3.8c0,.9-1,1.8-1.3,2.5h-.8l-.2-.6v.6h-.7l-.2-.7v.7h-1.2l-.2-.7v.7h-.8l-.2-.8v.7h-.9c-.2-.4-.3-.7-.2-1-.1.3-.1.6,0,.9l-.7-.2c-.2-.2-.3-.6-.3-.9-.1.2-.1.5,0,.8-.8-.1-3.6-1.2-3.7-2h.8c0,0,1,.3,1,.3M303.1,57l.5-.4.2-.5c-1.5.8-3.2,1.4-4.9,1.7h.4c.8,0,1.6-.1,2.4-.3l1.3-.5M301.7,58.4h-1.1c-1.2.1-2.3-.1-3.4-.7,2.8-.3,5.2-1.9,6.7-4.3.6.3.9.8,1,1.5,0,.3-.2.7-.4.9-.1-.2-.4-.3-.7-.4.4.2.6.7.6,1.1,0,.7-.7,1.2-1.5,1.6l-1.3.3M302.3,52.5l-1.3,1.5c-1.1,1.3-1.7,1.8-4.2,2.5h.3c2.1-.2,4-1.4,5.1-3.3l.2-.7M296.1,57.7v-.6c.3-.3.5-.7.7-1.1,2.6-.4,5-4.3,4.7-6.7.5.3,1.3,1.6,1.2,2.2.7-.2,1.4-.6,1.9-1.1,0,2.1-2,4.8-3.9,5.7l-2.3.9-2.3.7M296.6,39.6l-1.4.8-1.3.9c0-.5-.2-.9-.4-1.2.7-.3,1.5-.4,2.2-.4h.9M295.7,37.3l-.9.8c-.6.5-1,1.2-1.3,1.9l-.7-.8c.6-.7,1.3-1.4,2-2-.8.5-1.6,1.1-2.2,1.8l.4-1.2c.9-.7,1.9-1.1,3-1.1h.7l-1,.7M295.5,32l-1.3,2.1c-.7,1.5-1.4,3-1.9,4.6l-.6-.3c.4-1.3,1-2.5,1.6-3.7-.7,1.1-1.4,2.3-1.9,3.5l-.6-.2,1.5-3.8s2.8-3.6,4.8-4l-1.6,1.9M290,42.3l.5.6.6.5.4-.4-.8-.3M289.6,40.4l1.5.4-.4.4M289.5,18v-.3c.1,0,.7.3.7.3M290.1,43.3l-.6-.5c.1.4.7.8,1.1,1.1l.3-.4-.8-.2M289.5,46.8l1.5-1.6c1-.2,2-.3,3-.3,1,0,2,.2,2.8.7h-.4c-2,0-3.9.7-5.4,1.9l-.7-.4-.7-.3M289.3,57l.2-1.2c.8.4,1.7.7,2.6.8,1.9,0,2.9-1.7,3.7-3.1.3.5.4,1.1.3,1.7,0,.7-.3,1.3-.8,1.8.2.4.3.8.3,1.2v1c-.1,0-.5.6-.5.6v-.8c-.6-.7-1.4-1.2-2.3-1.4l-3.6-.6M291,38.7l1.1.7c.7.4,1.1,1.2,1.2,2,0,.5-.4.8-.9.8-.5,0-.9-.2-1.3-.4l1.2-1.5h-.7c-1.1.1-2.1-.4-2.6-1.3.1-.4.4-.4.8-.4l1.1.3M290,19.9h-.6c0,0-.5-.3-.5-.3v-.3c.5-.5,1.2-.7,1.8-.4l.3-.6-.8-1c.4-.4.8-.6,1.3-.7.3.4.4.9.4,1.3,0,.8-.5,1.5-1.2,1.9l-.8.2M288.9,33.8v-3.7c1.4-3,3.1-5.8,5-8.4-1.9,2.3-3.6,4.8-5,7.4v-2.1c1.9-3,4.7-7,8.2-8.3-2.7,3.3-5,7-6.7,10.9l-1.5,4.2M288.9,37.2v-1.9c0-.8,2.6-5.4,3-6.2,1.3-2.1,3.1-4.5,5.5-5.5-2.9,4.4-5.2,9.2-6.9,14.2h-.5c0-.1-.9.1-.9.1,1.4-3.5,3.1-7,5-10.3l-2.8,4.7-2.5,4.8M290.2,44.2l-1.3-.7,1,1.1M288.9,16.4l1.1-.5-.4-.6c-.8.4-1.3,1.2-1.3,2l.2-.6.4-.4M288.2,44.1l.4.6.7.5.4-.4-.8-.3M289.4,15.1l-.4-.6c-.7.4-1.2,1.2-1.3,2,.1-.4.3-.7.6-.9l1.1-.5M288.7,14.3l-.3-.6c-.8.4-1.3,1.2-1.3,2,0-.4.3-.7.6-.9l1.1-.5M287,14.1l1-.6-.3-.4c-.7.4-1.2,1.1-1.3,1.9l.6-.9M287.3,12.8l-.3-.4c-.8.4-1.3,1.2-1.3,2,.1-.4.3-.7.6-1l1.1-.6M286.8,12l-.4-.3c-.8.3-1.3,1.1-1.3,1.9.1-.4.3-.7.6-.9l1.1-.6M284.8,51.8l-.3-.8c-.3-.8-1-1.3-1.8-1.4h-.3c0,.4,1,.9,1.8,1.5l.7.6M284.2,41.5l-.7.5-.5.6h-1.2c.6-.4,1.1-1.1,1.5-1.8l1.1-.2,1.2.2-1.5.7M282,51.3l.7.5.6.7c-.1-.7-.8-2-1.6-2h-.8l1,.8M279.8,31.9h1c0-.1,1-.1,1-.1.2.1.5.1.8,0v.2c.1,0-2.8-.1-2.8-.1M281.9,11.3l-.2-.2-2.3,1.8.2.2M278.9,45.3l1.3-1,1.2-1.1h1.6c1.4-.2,2.8.2,3.8,1.1l-1.7-.2c-1.1,0-2.1.2-3.2.4l-3.1.8M281.5,8.8l-.3-.2c-.3,0-2.7,2.9-2.9,3v.2c.3-.2,3.4-2.3,3.4-2.8v-.3M277.7,52.2h-.1c0,.4,1,.8,1.3,1l.9,1c0-.8-.6-1.6-1.4-1.9h-.8M278.5,21.6l.3-1.1c.2-.3.6-.5,1-.5h.4c-.5.7-.9,1.5-.9,2.3-.8,0-1.4.6-1.8,1.2-.2-.2-.3-.6-.3-.9,0-.3.2-.6.4-.7l.8-.4M277.3,33.9v-.2c.1,0,.7.1.7.1.7,0,1.2-.7,1.1-1.3.1-.2.3-.2.7-.2h3v.9h-1.8c0,.1,1.7.4,1.7.4v.3h-5.4M279,8.4h-.3c0-.1-1.7,1.8-1.7,1.8l.3.2M277.9,20.6l-.2.5-.5.3c-.3,0-.7-.4-.7-.8,0-.4.3-.7.7-.8l.5.2.2.6M278.3,54.7l-.2-.7c-.3-.7-1-1.2-1.8-1.3h-.3l1,.8,1.3,1.2M280,3.4v-.3c0,0-.3-.2-.3-.2-.4,0-3.8,6.2-4,6.5h.2c0,.1,2.1-3,2.1-3l2-3.1M274.2,36.3v-.3c1.1-.3,2-.9,2.7-1.7h5.7l-.2.9-1.9.2,1.9.2-.2.7h-8M275.5,6.3l-.2-.2-1.2,2.4.4.2M278.6,58.8l1.5-.2c-1-.5-2-.8-3.1-.8h-1.8c.1,1.3-1.1,2.1-2,2.7l3.5-1.2,1.9-.5M275.4,43.9l-1.7.2h1.1c0,.1-1,.6-1,.6-.2-.5-.5-.9-.8-1.3h3.7l-1.3.6M272.7,8.1h0c0-.1,1.2-2.9,1.2-2.9,0-.3-.3-.4-.6-.4-.3,0-.7,1.8-.7,2l-.3,1.2h.3M272,38.4v-.8c.1-.3.2-.6.7-.6h.2c.2-.7,1.1-.2,1.2-.6h7.9l-.2.6-2,.3,1.9.2-.4.8h-9.3M271.9,47.5h-.1c.2-.3.3-.7.2-1.1v-.7c-.1,0,.7-.1.7-.1,6.1-1.3,10.5-6.6,10.6-12.9,0-2.4-1.6-8.5-4.7-8.5l-.7.2c.3-.9,1.1-1.5,2-1.6,0-1.3.2-2.3,1.8-2.9v.9c-.1,4,3.2,5.8,3.2,11.9s-5.1,13.2-12.3,14.7h-.8M281.2,38.6l-.4.8-2.1.2,1.8.2-.6.8h-8.1v-.3c-.1-.2.3-.4.3-1v-.7h9.1M272.4,53.9l-.3-.5-.6-.2c.7,1,1,2.2.9,3.4.2-.5.3-1,.2-1.5l-.2-1.2M271.7,45.1l-.3-.3.3-1,.4-.8.6.6c.3.3.6.8.7,1.2h-.7c0,.1-1,.3-1,.3M271.3,5h-.4l-.2,2.5h.3M271.5,46.3l-.3,1c-.1.3-.4.5-.8.6-.2,0-.2-.2-.3-.3.3-.4.5-.8.6-1.3,0-.4-.2-.8-.4-1.1h.3c.3,0,.6.1.8.4l.3.8M269.8,0l-.3.2v.4c-.1,0,.1,7.2.1,7.2h.4V.7c.1,0,0-.5,0-.5M270,24.1v.2c.1.2,0,.3-.5.3-.2,0-.3,0-.3-.3,0,0,0,0,0,0,0-.2.2-.2.4-.2h.4M269.8,54.1l-.3-.8c-.2.5-.3,1-.3,1.6,0,.8.2,1.6.3,2.3.2-.8.3-1.6.3-2.3v-.8M270.2,24.8l.3.3c-.1.3-.3.3-.9.3s-.8-.2-.7-.4c.1-.3.3-.3.8-.3h.5M269.6,47.2l-.4.4-.4.2-.4-.2c.3-.3.5-.8.4-1.2v-.8c-.1-.2.1-.3.3-.3.4,0,.8.7.8,1l-.3,1M268.1,26.1l.3-.3c.6,0,1.2-.1,1.8,0,.3,0,.8.1.9.3,0,.4-.1.4-.4.4-.7,0-1.5,0-2.2-.1l-.4-.3M268.1,5h-.5l.5,2.6h.3M269.6,26.8h1.6c.3,0,.6.2.7.6,0,.3-.2.6-.5.7,0,0-.1,0-.2,0h-3c-.3,0-.6,0-.6-.6s.2-.8.7-.8h1.3M268.2,45.1l-1.2-.2h1.7M266.5,55.1l.2,1.5h0c-.2-1.3.1-2.4.8-3.4-.4,0-.6.3-.8.7l-.2,1.2M267,28.6l.9-.4c1.2.1,2.4.1,3.6,0,.5,0,.9.4,1.2.8.2.4.4,1,.3,1.5l-.3,1.8c-.4.8-1,1.6-1.7,2.2-.9,1.1-.9,3.2-1.6,3.8-.2-.4-.3-.8-.3-1.2,0-2.2,1.7-3.4,1.7-4.8s0-.8-.3-.8c-.2,0-.3,0-.3.3,0,0,0,0,0,0v.8c.1,1.5-1.8,3.1-1.2,5.7-.4-.3-.7-.7-.8-1.2-.3-.9-.2-2.1-.7-2.8-.8-1.1-1.7-2.1-1.7-3.4,0-.6.2-1.2.6-1.7l.7-.6M266.6,28.5l-.7.6c-.4.6-.6,1.3-.5,2,0,2.2,1.7,2.7,2,4.2.2,1,.4,2.7,1.6,3l.4.6c1.3-.9,1.2-2.9,2.7-4.5l.7-1c.5-.8.8-1.8.7-2.8,0-.8-.2-1.5-.7-2.1-.3-.2-.6-.4-1-.4.2-.2.4-.5.3-.8,0-.4-.4-.7-.8-.8v-.4c.1-.3-.4-.6-.8-.6l.2-.3c0-.2-.2-.4-.4-.4v-.3c0-.4-.3-.7-.7-.7-.4,0-.8.3-.6,1-.2,0-.3.2-.3.4v.3c-.2.1-.6.1-.7.4h0c0,.1.1.6.1.6-.6.1-.8.3-.8.9,0,.3,0,.5.3.7l-1.1.4M266.3,6.3l-.4-1.1-.4-.5c-.2,0-.3.2-.3.4l1.2,2.9h.2c0-.1-.3-1.8-.3-1.8M263.7,6.1l-.2.2,1,2.4.3-.2M264.9,18.9l1.5-.4c1-.2,2.1-.3,3.2-.3,1,0,2.1,0,3.1,0,1.4.2,2.7.7,3.9,1.3-.4.3-.6.7-.6,1.1v.6c-1-.6-2.1-.9-3.4-1l-3.1-.3c-1.9,0-3.9.4-5.6,1.3v-.6c.1-.4,0-.9-.4-1.1l1.4-.6M264.3,43.8l-.8-.4h4.9c.2.2.5.3.8.2.9,0,.1-1,1.6-.8,0-1.8,1.2-.3,1.1-1.8h7.6l-.7.7-2.2.2,1.8.3-1.2.8h-4.5c0-.1-.8-.7-.8-.7l-1,2.2c-1.5.1-3.2,0-4.7,0l-.9-.3h1.2c0-.1-2.2-.4-2.2-.4M263.5,20.6l-.2.5-.5.3c-.4,0-.7-.4-.7-.8,0-.4.2-.8.7-.8l.5.2.2.6M261.2,14.4l1.6-2c1.8-1.9,4.2-3,6.8-3,1.1,0,2.1.2,3.1.6,2.3,1,4.1,2.7,5.3,4.9-1.7.3-3.5.6-5.3.7h-3.1c-2.1,0-4.3-.2-6.3-.6l-2.1-.6M262.2,53.6l1-.8h-.3c-1,.1-1.9,1-2,2l1.3-1.2M261.4,41.6l-.4-.3-.3-.4h6.4c.1.2.6.7.6,1,0,.4.2.8.6,1h-5.1l-1.1-.8,1.6-.2-2-.3M260.4,8.3h-.3c0,.1,1.7,2.1,1.7,2.1l.3-.2M261.5,21.6l.9.4c.3.1.5.4.5.7,0,.3-.2.7-.4.9-.4-.7-1-1.1-1.8-1.2,0-.8-.4-1.6-.9-2.2h.4c.6-.2,1.1.3,1.2.9v.6M261.5,52.2h-.1c-1.1,0-2.1.9-2.2,2,.3-.3.6-.8,1-1l1.2-.7.2-.3M261.5,6l-1.3-2.2-.8-1c-.2,0-.3.3-.3.4,0,.3,3.8,5.6,4.1,6.2h.2c0-.1-1.9-3.5-1.9-3.5M265.6,38.6l.2.4v.2h-.2c0,.1,1.2,1.3,1.2,1.3h-6.5l-.7-.8,1.8-.2-2.1-.2c-.1-.3-.3-.4-.3-.8h6.6M262.4,59.3l3.5,1.2c-.9-.6-2.1-1.3-2-2.6h-1.8c-1.1-.1-2.2.1-3.1.7l1.6.2,1.9.5M265.1,37.4l.4,1h-6.7l-.4-.8,1.7-.2-1.8-.3-.2-.6h6.5M257.7,29.6l.6-1.4c.7-1.6,1.8-3.4,3.2-3.4s.9.4,1.5.7l-.2-1.2c.5-.3.8-.9.8-1.5l-.2-.6c1.9-1.2,4-1.8,6.3-1.8l3.1.3c1.4.2,2.8.7,4.1,1.3l-.2.7c0,.6.3,1.1.8,1.5v1.2c.3-.2.7-.7,1.2-.7,2.4,0,3.8,4.8,4,6.6h-.2c-.3.1-.5,0-.7-.3v.4h-1.1c0,.1-.7,0-.7,0l-.3.4h-.2c-.4,0-.7.2-.9.4v.2c0,.4-.2.7-.6.8h-.6c0-.1-1.3,1.1-1.3,1.1-.6.5-1.2.8-1.9,1.1-.2.1-.2.3-.3.7-.4.1-.9.1-1.1.5-.7-.1-.9.3-1.2.9.2.5.3,1.1.3,1.7,0,.3-.4.4-.4,1v1l-.7.3c-.2.2-.3.4-.3.7-.9,0-.7.3-1,.8h-.1c-.3,0-.6,0-.8-.2-.3-.2-.5-.5-.4-.9,0-.7-1.2-2.1-1.8-2.6v-.3c.1-.7-1-2.1-1.3-2.7v-.4c0-.8-.6-1.7-.6-2.6s.3-.3.4-.4c-.3-.4-.3-1.7-.7-1.7s-.3.6-.4.7c0,.4-.7.6-1,.6-.7,0-1.3-.4-1.7-1,.4,0,1.2,0,1.2-.6,0-.2,0-.3-.3-.3,0,0,0,0,0,0l-.7.2c-.2,0-.4-.2-.6-.3-.8-.8-1-.3-1.6-.7h-.1c0,.1-.3.1-.3.1l-.9-.3M257.7,30.2v-.2l.6.2M264.2,34.4l.3,1.6v.4h-6.6l-.2-.8,1.9-.3-2-.2v-.7M257.7,8.6h-.1c0,.1-.2.4-.2.4,0,.4,3,2.6,3.2,2.8l.2-.2-1.5-1.6-1-1-.7-.5M257.4,33v-.6h3.6v-.2h-3.6v-.6c.1,0,2.1-.3,2.1-.3h-2c0-.1.1-.8.1-.8h2.6l.4.4h-.2c.4,1.1,1,1.9,2.2,1.9.5,0,1-.3,1.3-.7l.2.6-.2.6v.7c.1,0-6.5,0-6.5,0v-.6c-.1,0,1.7-.3,1.7-.3h-1.8M259.5,13.1l.2-.2-2.3-1.8-.2.2M258.1,50.5h-.8c-.8,0-1.6,1.3-1.6,2l.6-.7,1.8-1.4M257.5,24.6l.5-1.1c.5-1.1.6-2.4.4-3.6,1.2.4,2,1.6,1.8,2.9,1,0,1.8.7,2.1,1.6l-.8-.2c-3.1,0-4.7,6.2-4.7,8.5.1,6.5,4.9,12,11.3,13l.2.7c0,.4-.2.8-.3,1.1-7.4-1.2-13-7.2-13-14.8,0-2.1.4-4.2,1.4-6.1l1.1-1.9M256.6,42l-.7-.5-1.5-.7,1.1-.2,1.2.2c.4.7.9,1.3,1.5,1.9h-1.2c0-.1-.5-.7-.5-.7M256.8,49.8h-.3c-1.1-.1-1.8,1-2,2,.4-.5.8-.9,1.3-1.2l1-.8M254.7,12.6l.4.4.2.5c0-.8-.6-1.5-1.3-1.9l-.3.3,1,.6M253.2,44.3l.8-.6c.9-.4,1.9-.7,3-.6h1.6c.8.9,1.6,1.6,2.6,2.2-2-.4-4.1-1.2-6.3-1.2l-1.7.2M254,13.3l.4.4.2.5c-.1-.8-.6-1.6-1.3-2l-.3.4,1,.6M254,15v-.6c-.4-.6-.8-1-1.3-1.3l-.3.4,1,.6.6.9M254.9,44.4l3.8.6,3.6,1c1.8.9,3.7,1.6,5.7,2l.9.3.7-.2.8.3c.4,0,.7-.3,1-.4h1.3c1.8-.6,3.6-1.2,5.3-2,2.4-.8,4.8-1.3,7.3-1.6,1,0,1.9.2,2.7.8-.8-1.6-2.5-2.6-4.3-2.5.4-1,1.9-1.6,2.8-1.8-.5-.5-1.2-.7-1.9-.7h-.9c1.3-2.3,2-4.9,2-7.6,0-3.4-.9-5.5-2.6-8.4-.6-1.1-.9-2.3-.9-3.5l.2-1.8-1.6.7c-.3-.2-.7-.3-1-.2-.6,0-1.1.1-1.3.7-.6-1.3-4.6-2.4-5.8-2.6-1,0-2.1,0-3.1,0-2.1,0-5.1.2-6.8,1.7-.5,0-.9.4-1.1.9-.3-.4-.8-.7-1.3-.7-.3,0-.7,0-1,.2l-1.6-.7.2,1.8c0,1.2-.3,2.4-.9,3.5-1.7,2.5-2.6,5.4-2.6,8.4,0,2.7.7,5.3,2,7.6h-.9c-.7,0-1.5.2-2,.7,1,.2,2.5.8,2.9,1.8-1.8,0-3.5.9-4.4,2.5l1.4-.6,1.4-.2M252.7,14.9l.4.4.3.5c-.2-.9-.7-1.6-1.5-2l-.3.6,1.1.5M252.1,15.6l.4.4.3.5c0-.9-.6-1.6-1.3-2l-.4.6,1.1.5M252.2,44.1l-.8.4-.9.3.4.4.7-.5M252.1,17.4v-.6c-.4-.6-.8-1.1-1.3-1.4l-.4.6c.6.1,1.2.4,1.5.9l.3.5M250.2,18l.4-.3.2.3M250.7,49.1l.6-.2,1.3-.2.8-.6h-.8c-1,0-1.9.5-2.4,1.3l.5-.4M250.4,44.7l1-1.1c-.4.3-.9.5-1.5.7l.4.4M249.7,41.3l-.4-.4,1.3-.4M251,42.9l-.8.5-.9.2.6.4M250.3,42.3l-.7.4-.8.3.6.4M250.7,18.9l.6.3v.3l-.5.3h-.5c-1.1,0-1.9-.8-1.9-1.8,0,0,0,0,0,0,0-.5.1-.9.3-1.3.5,0,1,.3,1.3.7l-.8,1,.3.6h1.1M247.5,42.7h.3c1.6,0,4.3-2,3.9-3.8h.1v-19.3c0-1.6-1.1-3-2.7-3.5,1.2-1.6,2.6-3.1,4-4.5l.7-.2c.7,0,1.3.4,1.8.9,3.5,3.4,10.6,3.9,15.1,3.9h1.9c3.6-.3,9.2-1.2,12-3.9.4-.5,1-.8,1.7-.9l.7.2c1.5,1.4,2.8,2.9,4.1,4.5-1.6.4-2.7,1.8-2.8,3.5v19.5c.6,1.9,2.2,3.3,4.1,3.6l-3.2,4.1c-.7-.3-1.5-.5-2.3-.4-4.5,0-8.7,4.4-14.2,5h-2.9c-7,.1-11.2-4.9-16.3-4.9l-2,.2-3.9-4M250.4,38.4h.5c0,0,.3.4.3.4-.7,1.3-1.9,1.5-3.2,1.3.3.5.8,1,1.2,1.5-.4.2-.9.4-1.3.4-.4,0-.8-.3-.9-.7,0,0,0,0,0,0,0-1,1.2-2.1,2.4-2.6l1.1-.3M246,51.4l.7-1c2-2.2,4.8-3.5,7.8-3.6,1.6.1,3.2.7,4.5,1.8,3.5,2.3,7.6,3.5,11.8,3.5h1.9c3.2-.5,6.2-1.8,8.8-3.7,1.2-.9,2.6-1.5,4.1-1.6,2.8,0,6.8,1.3,7.3,4.6-.7-.2-1.3-.3-2-.3-.9,0-1.8.3-2.4,1-1-1.8-2.9-2.6-4.9-2.9,3.2.8,5.3,4.3,5.5,7.4h-1c0-.1-2.7,0-2.7,0-.7,0-1.4,0-2-.3-.8-2.9-2.3-4.8-5.5-4.8h-.1c3,.7,4.9,3.8,5.1,6.7-1.7-1-3.6-1.6-5.5-1.6-.9,0-1.8.1-2.6.4v-.4c0-1.4-.6-2.8-1.6-3.8.7,1,1.1,2.2,1.1,3.4,0,1.3-.7,2.5-1.8,3.1-1.3,1-2.2,1-3.1,2.6-1.3-2.6-4.9-2-4.9-5.7,0-1.2.4-2.3,1-3.4-1,1.2-1.5,2.7-1.5,4.3-.8-.3-1.7-.5-2.6-.4-1.9,0-3.8.5-5.5,1.6.3-2.9,2.1-6,5.1-6.7h-.2c-2.9,0-4.6,1.9-5.3,4.8-.7.3-1.4.4-2.1.3h-2.6c0-.1-1.1,0-1.1,0,.2-3.1,2.2-6.6,5.5-7.4-2,.2-3.8,1.3-4.9,2.9-.6-.7-1.5-1-2.3-1l-2.1.3M246.4,41.3l-1.2-.9-1.3-.8h.8c.7,0,1.5.1,2.1.4l-.3,1.2M246.3,38.9l-.7-.9c-.6-.6-1.2-1-1.9-1.4h.6c1.1,0,2.2.4,3,1.1l.4,1.2-2.1-1.8c.7.6,1.3,1.3,1.8,2l-.6.8-.5-1M246.4,46.1l-1.5-.4h-1.5c.9-.6,2-.9,3-.8.9,0,1.9.1,2.8.3l1.3,1.6-.8.3-.7.4-1.2-.8-1.4-.6M247.9,22.2l1.9,2.4,1.5,2.4v2.1c-1.4-2.6-3.1-5.1-4.9-7.4,2,2.6,3.6,5.4,4.9,8.4v3.7l-1.4-4.2c-1.7-3.9-4-7.6-6.7-10.9.9.3,1.7.8,2.4,1.4l2.2,2.1M247.1,32.9l.8,1.3,1.6,3.8-.6.2c-.5-1.2-1.2-2.4-1.9-3.5.6,1.2,1.1,2.4,1.6,3.7l-.7.3c-1-3-2.4-6.3-4.7-8.6,1.1.3,2,.8,2.8,1.6l1.1,1.2M247.3,27.5l1.1,1.6c.4.8,2.9,5.4,2.9,6.2v1.9l-2.4-4.8-2.6-4.7c1.7,3.4,3.6,6.8,4.9,10.3-.4-.2-.8-.2-1.2-.1-1.8-5-4.2-9.8-7.2-14.2,1.2.5,2.3,1.3,3.2,2.3l1.3,1.6M249.8,56.9l-2,.5-2.1.3c-2,0-6.3-.6-6.3-3.2,0-.6.2-1.2.6-1.7v.6c.2-2.6,1.5-2.7,3.4-3.4-.9.7-1.5,1.7-1.6,2.8,0,2.2,2.6,3.8,4.6,3.8h.8c0,0,.8-.3.8-.3l1.5-.7.2,1.3v.3c.1,0,.1-.3.1-.3h.3l1.6.2c-2.1,1.3-4.6,2.1-7.1,2.2l-3.9-.3h-.8c0,0-.8.3-.8.3v-.2c.3-.9,1.5-1.3,2.2-1.7,1.5.5,3,.7,4.6.8,1,0,2-.2,3-.7l.8-.6M237.7,44.6h.5s-.8-.6-.8-.6l-.2.4M238.1,41.6l-.4-.3-.6,1.5M238.1,45.3l-.9-.8-.2.3.5.3M237.6,45.6l-.8-.4v.2c0,.2.4.2.7.2h.1M236.3,41l-.4,1-.4,1,1.2-1.7M235.4,38l.2-.4v-.5s0-.7,0-.7h.3c0,.1.7,0,.7,0,0,.5-.3,1-.7,1.4l-.4.2M235.6,47.5l1,1c.4.3.9.4,1.4.5,0,.3-.2.6-.4.7h-.1c-1.1-.2-1.9-1-2.1-2h.2M235.9,15.1v-.2l-.9.2M235,33.6v-.4c.1,0,.1-.4.1-.4h.2l.6-.2.3.9c0,.2,0,.4-.2.6l-1-.3M236,45l.4.5c.4.7.8,1.8,1.9,1.8.3,0,.7-.1.9-.3l.3-.2c.3.2.4.5.4.9,0,.4-.3.8-.8.9h-.4c-1.7,0-3.2-1-3.8-2.6l.4-.7.6-.4M234.7,6.7v-1.1c.1,0,0-.8,0-.8.7.3,1.2,1,1.1,1.8v.6l-1.1-.4M234.7,14.3l.2-.5.5-.2h.3M234.4,56l1.3-.5,1.3-.2c.8,0,1.5.1,2.2.3h0c.2.5.6.9,1,1.1h-1c0-.1-.2-.1-.2-.1-1,0-2,.2-2.9.7l-1.7-1.3M235.4,32.5h-.4c0-.4-.3-.8-.8-1,.3-.1.6-.4.7-.8l.8,1.6-.3.2M235.5,47.5h-.5c0,0-.4.3-.4.3-.2-.2-.3-.3-.3-.6s.7-.4.7-.4l.6.7M235.5,37.3v.3c-.3.2-.6.4-.9.4-.4,0-.7-.2-.8-.6,0,0,0-.1,0-.2,0-.5.3-.9.6-1.2.4.2.8.5,1,.9v.5M234.3,12.8l.5-.3h.5c.3-.1.7,0,.9.2-.1-.4-.7-.4-1.1-.4-.7,0-1.4.5-1.6,1.2l.8-.8M235.6,14.7h.7c0,.1-.2-.5-.2-.5l.2-.7h-.3c0,.1-.6,0-.6,0-.5,0-.9.3-1,.8-.3.2-.6.3-.9.3h1.4c0,0,.7,0,.7,0M234,25.2l.3.3v.5c0,0,0,0,0,0l-1-.2v-.6c-.1,0,.4-.1.4-.1M234.3,42.3l1.1-1.6-.4-.2c-.5,1.1-1.2,2.2-2,3.1l1.4-1.3M233.8,24.9h-.2l-.7.2v-.3c-.1,0,.6-.4.6-.4M233.1,26l.7.4.2.5c0,.3-.2.4-.3.4-.4,0-.7-.6-.9-.8l.3-.6M233,32.2l.7-.3c.5,0,1,.3,1.1.8,0,.5-.3,1-.8,1.1-.1,0-.2,0-.3,0-.6,0-1-.4-1-1,0,0,0,0,0,0l.3-.6M233.1,34.9l.4-.7h.2c.4,0,.8-.2,1.1-.4.8.3,1.3,1,1.5,1.8,0,.3-.2.4-.6.4-.7,0-1.4-.6-1.5-1.3v.7c-.2.4-.6,1.1-1.2,1.1s-.8-.1-.8-.8v-.3l.4-.2.3-.3M232.6,24.6h-.4c0-.1.7-1.1.7-1.1l.3.5M233.7,7.8l-1.7,1.8c-.2,0-.4-.1-.4-.4,0,0,0,0,0,0,0-.4.4-.7.8-1l1.3-.4M233.4,34.2l-.5.6-.7.3c-.4,0-.6-.3-.7-.7,0-.5.2-.9.6-1.2l.3-.2.3.8.7.4M232.8,25.5l-.3.5-.5.2c-.4,0-.7-.3-.7-.6,0,0,0,0,0,0,0-.4.3-.6.7-.7l.5.2.3.5M232.9,31.7l-.4.5-.2.6-.7.2c-.4,0-.7-.3-.7-.6,0,0,0,0,0,0,0-.4.1-.8.3-1.1l.7.4h.8M235,39.4l.9.4c1.1.3,2.2.4,3.3.5.8.1,2,.4,2,1.3,0,1.9-1.9,2-2,4.6-.1.4-.7.7-1.2.7s-1.3-1-1.6-1.7c.3-.3.6-.8.7-1.2l.4-.4h.7l-1.6-.2c-1.9,0-3.9,1.1-5,1.1s-.6-.2-.6-.6l2.1-2.1,1.8-2.4M230.9,27.5l-.3-.2c0-.4.4-.8.6-1l.7.3c-.1.3-.3.6-.6.8h-.3M231.2,7.7l.7-.4h.7c0-.1-1.8,1.9-1.8,1.9-.3,0-.4-.1-.4-.3l.2-.6.6-.5M230.9,18h-.3c-.2-.1-.2,0-.2.2,0,.2,0,.3.2.3s.4-.1.4-.3v-.2M231,25.8v.3c-.1.3-.3.3-.7.3s-.7,0-.7-.3.6-.4.8-.4h.6M231.3,27.6l.4-.3v.5c.1,0,.3.1.3.1v-.2c-.1,0-.2-.5-.2-.5h0c0-.1.2-.6.2-.6h.6l.2.3-.2.6-.2.3h.3c0-.1.2-.7.2-.7l.7.2c.3,0,.5-.2.6-.5,0,0,0,0,0,0,0-.3-.2-.6-.4-.8h.6v.6c0,1.3-.4,2.5-1.1,3.6-1.7-.7-3-2.1-3.5-3.9.1.3.7.3,1,.3-.2.1-.3.3-.3.6,0,.3.3.5.6.6h.4M231.1,55.7l.7-.5.6-.5c.4,0,.7.4.7.8,0,1.1-2,1.1-2.9,1.1h-.4v-.3c-.1,0,1.4-.6,1.4-.6M231.3,6.7l-.6.7-.5.8c-.1.2-.1.4-.4.4l-.2-.4c0-.4.3-.8.6-1l1.1-.5M231,25.3v.2h-.7c-.2-.1-.8.1-.8.6l-.2-1.3,1.7.6M230.3,23.1l-1.5-1.2c.5-.1,1.1-.4,1.5-.8.2.4.6.6,1,.6.3,0,.6-.4.6-.8.7.1,1.2.6,1.5,1.2-.4.7-.9,1.4-1.5,2l-1.6-1M231.5,29.8l.8.6.9.4c1-1.2,1.6-2.8,1.7-4.4.3.5.5,1.1.4,1.7,0,1.6-.8,3.5-2.6,3.5-.5,0-1-.3-1.3-.7-2-1.5-2.7-4.4-2.9-6.7l.7.6c0,1.6.5,3.2,1.6,4.4l.7.7M231.3,16.2l.5.4.5.2c.4,0,.7-.1.9-.4h-.3c-.5.2-.9-.2-.9-.6,0,0,0-.1,0-.2l.2-1.5c0-.6-.4-1.1-.4-1.6l.6-1.1c.3-.6,1.2-.7,1.7-1,.7-.4,1.4-1,1.9-1.6h.9l.4.6.2.7c-.4.1-.6.5-.6.9,0,.3.1.6.3.9v.2c0,1.2,1,2.5,1.7,3.5-.2.3-.8.3-.9.7h-.3c-.6.1-.1-.2-.4-.3v.2c-.1.4.4.3.8.2v.7c-.6.4-1.2.6-1.8.6.1.4.8.8,1.1,1-.2,0-.4.3-.3.6,0,.4.4.8.4,1.1,0,1-3,1-3.6,1h-.6v-.3c0-1.1-.4-2.2-1.8-2.2h-.3c.9.2,1.7,1,1.8,1.9h-.2c-.4.1-.8-.7-.8-1.2-.4.3-.1,1.8-.7,1.8s-1-1.1-1-1.6c-.2.3-.2.7-.1,1l-1,.7v-.4c0-1,.7-1.9,1.7-2.1-1.2-.1-2.2-1.1-2.2-2.4,0-.8.7-.9,1.2-.9l1,.2.7.4M227.9,22.7l.7-.8c1,.9,2,1.8,3.1,2.6-.3.1-.5.3-.7.6l-1.7-1.1-1.4-1.3M228.5,37.8v.5c-.4.5-.9.8-.9,1.4v-.3c-.1,0,0-.4,0-.4l.5-.8v-.5c0-.4,0-.9-.3-1.2l.6.5.2.8M229.1,54.3l.9-.4c.6-.3,1.1-.8,1.3-1.4h.2c.6,0,1.1.1,1.1.8,0,1.5-3.1,2.7-4.4,2.7s-1.1-.2-1.1-.9l.2-.8h.7c0,.1,1,0,1,0M227.3,6.4l.9-1v.7c0,.7.2,1.3.6,1.9,0,.7-.8.9-1.2,1-.4-.3-.7-.7-.7-1.2v-.7c.1,0,.4-.7.4-.7M227.1,22l-.3-.4c-.2-.5-.4-1.1-.3-1.7v-2.9l.4,2.5.3,2.5M225.8,13.8l.4-.5c1-.9,3.2-.6,4.9-2.3-.2,1.8-2.2,1.9-3.8,2.3l-1.4.5M225.8,15.6l1.3-.8c1.4-.6,2.9-.7,4.1-2,0,1.8-2.1,2-3.8,2.3l-1.5.5M227,12.1l-1,.2h-.4c1.5-.8,2.9-1.1,4.4-1.8-.5.5-1.2.9-1.8,1.2l-1.1.4M225.4,11.1l.6-.5c.8-.4,1.6-.7,2.5-.9l-1.4.9-1.7.5M225.6,31.3v.9c.1,0-.1,1.8-.1,1.8,0,.9.3,1.8,1,2.4-1.1-.4-1.3-1.2-1.3-2.5l.4-2.6M225.6,22l.5,1.3c.5.7.7,1.5.8,2.4v.4c-.4-2-2.2-3.4-2.2-5.8,0-1,.2-1.9.6-2.8.2.9.2,1.7.1,2.6l.2,1.9M224.8,57.3l-.3-1v.4c0,.6.2,1.2.7,1.6l.3-.3-.7-.7M226.3,27.2l.4.9v.9c.1,0,.1.2.1.2l-.9-1.9c-1.2-1.9-2.8-3.9-2.8-5.8,0-1.1.2-2.1.7-3l-.2,1.7c0,1.8.6,3.6,1.6,5.1l1.1,1.9M225.7,59.6l1.3-.2,1.3-.6c-.7.3-1.4.5-2.1.4-1.1.1-2.1-.6-2.2-1.7,0-.2,0-.3,0-.5,0-.7.4-1.4,1-1.7.3,1.5,1.6,2.6,3.1,2.6.6,0,1.2-.1,1.7-.4.3.9,1.1,1.6,2,1.8-.9.7-2,1-3.1,1h-2.2c-1.1-.2-2.1.2-2.9.9-.2-.3-.4-.6-.4-1,0-.6.4-1.1.9-1.3.2.3.5.5.8.6l1,.2M223.3,14.7l.5.2.5.4.2.9v.2h-1.3c-.5-.4-.9-.9-.9-1.5l1-.2M222.5,35.9v.7c0,1.1,1.1.6,1.2,1.6-.6-.6-1.6-.3-1.6-1.5v-.4c0,0,.3-.3.3-.3M222.6,24.4l.5,1c.8,1.3,2.8,3.5,2.8,5-.5-.9-1.1-1.8-1.7-2.6-1.2-1.6-2.4-2.5-2.4-4.8,0-.7.1-1.4.3-2l.2,2.3.3,1.1M222.3,17.8h-.6c.6-.9,1.5-1.4,2.5-1.3-.2.6-.7,1.1-1.3,1.2h-.6M221.7,31.2l-.4-.2-.3-.4h0c0,.6.2.9.6.9s.6-.3.8-.6l-.7.2M222.9,16.3l-.6.2-.5.4c-.4-.2-.7-.4-.9-.8.2-.4.6-.6,1-.7l.5.5.5.4M220,28l-.5-.2-.3-.4h0c0,.6.1,1,.6,1,.4,0,.7-.2.9-.6h-.7M220.7,51.4l1,.2c.9.3,1.7.9,2.2,1.7-.6-.2-1.3-.3-2-.3-1.3,0-3.1.9-3.1,2.5v.2c.2-.7.7-1.3,1.3-1.7.3.1,1.2.4,1.2.8,0,.7-1.7,1-1.7,2.2s2.3,1.7,3.6,1.6c-.3.3-.7.7-.7,1h-.4c-2.5,0-4.8-1.5-4.8-4.2,0-1.7,1.1-3.3,2.8-3.8h.7M220.4,22.7l-.5.5-1.3.8-3.1-1.3h.1c1.1,0,3.7-.7,4.1-1.8l.9-.2c-.2.4,0,.8,0,1.3l-.2.7M233.7,37.6h.1l.6.8-1,.2h.9c0,.1-.1.4-.1.4-.5.1-1,.1-1.5,0,.3.4.8.6,1.2.6h-.1c0,.1-.8.2-.8.2h-.8c.4.2.8.4,1.3.4h-.1c0,.1-.4.1-.4.1-.3,0-.7,0-1,0l1.1.6-.2.2h-1.2c.3.1.6.3,1,.4l-.4.4c-.4.1-.8.1-1.2,0l.9.5-.4.4h-1.1c.1.2.4.3.7.4-.3.2-1.5,1.1-1.9,1.1h-.9c0-.1-.9-2-.9-2l-.2-.3v.3h-.7c-.3-.1-.6,0-.9.2h.3c0-.1,1.3.1,1.3.1v.4c-.4,0-.9,0-1.5.2h1.7c0,.1.1.4.1.4l-1.5.2h.3l1.3.2v.2c-.4,0-.9.1-1.2.3h.6c0-.1.7,0,.7,0v.3c.1,0-1.1.3-1.1.3h.6c0-.1.9,0,.9,0,.2.7,1.1,1.5,1.1,2.2l-.4.9c.4,1.3,1.1,2.6,2,3.7-.4.8-1.1,1.4-2,1.5-.8,0-1-.4-1.1-1.1.3-.2.6-.4.8-.7l-.9.4v-.3c-.1,0,.8-.8.8-.8l-1,.4v-.4c.2-.1.5-.4.7-.7l-.9.4v-.2c-.1,0,.7-.8.7-.8-.3.3-.7.5-1.1.4-.2-.4-.8-.8-1.1-1.2.4-.1.7-.3.9-.7-.3.3-.8.5-1.2.5-1.3,0-.8-1.5-1.2-2.4-.2-.7-2-3-2.7-3s-.7-.1-.9-.6v-.4c0-.9-.4-1.8-.9-2.6.4.8.5,1.8.4,2.7v.2h-.6c-.5-.2-.8-.7-.8-1.2v.3c0,.4.1.7.3,1l-.3.3c-.3-.3-.6-.6-.8-1l.4,1.2-.7-.9.4,1h-.1c0,.1-.6-.8-.6-.8,0,.4.1.7.3,1h-.1l-.6-.8.3.9-.2.2-.6-1,.3,1.1-1,.2c-.8-.4-1.7-1.1-1.7-2l.2-.8,1.8-1.4,1.5-1.7h.3c1.1,0,2.4-1.3,3-2l1,1.1c.3.1,1.2.3,1.2.7s-1.5.4-1.5,1.6.9,1.2,1.6,1.3c-.4-.2-.7-.7-.7-1.1,0-.9,2.1-.1,2.1-1.5s-1.6-1.5-1.6-2.2c.1-.7.5-1.3,1.1-1.7,0,2.1,2.8,1.8,2.8,2.9s-1,1.1-1,2c0,1.8,3.2,1.5,3.2,3.5l-.2.8c.4-.3.6-.8.6-1.2,0-1.7-2-1.6-2-2.8s1.5-1.2,1.5-2.5c0-2-2.7-1.5-2.7-3.5s1.5-2.1,1.5-4.4c0-1-.2-2-.7-2.9.3,0,.4-.4.4-.7,0-.7-.4-1.3-.8-1.9.2-.6.4-1.2.8-1.7.1.5.3.9.7,1.2v.7c0,2.1.6,4.2,1.9,5.8-.4.4-.7,1-.7,1.6,0,.6.3,1.2.8,1.6v.9c0,.6.4,1.2,1,1.3v.4c-.1.5.2.9.7,1l1.5.2-1.3-.3c-.4-.2-.8-.5-.8-.9v-.7c-.2,0-1-.6-1-1,0-.4.2-.8.4-1.1-.5-.3-.8-.8-.8-1.3,0-.5.2-1,.6-1.3l.2.2v1.1c-.1.6,0,.9.7.9-.4.4-.6.8-.7,1.3,0,.6.6,1,1.1.9l-.2.6c0,.6.5,1,1,1,0,0,0,0,0,0h.6c0-.1.1.7.1.7M213,21.7l1.1-.2c0,.4.3.7.6.9l-1.7-.7M212.8,50.6h-.1c0-.1-.1-.4-.1-.4h.3M212.5,40.6v-2.9h.6v2.6M216,24.4l-.8.6-.9.3c-.4,0-.7-.4-.7-.8,0,0,0-.1,0-.2h-.3c-.7.1-1.5-.2-1.5-.9v-.7c.1,0,4.1,1.7,4.1,1.7l1.2.4,1.2.5c-.5.5-.8,1.1-.9,1.8.1,1.4,1,2.6,2.2,3.1.1,1.2-.3,2.9,1.6,2.9h.4c-2.5-.8-.7-2.3-1.8-3.5-1.1,0-2-.9-1.9-2,0,0,0-.1,0-.2,0-.7.2-1.5.6-2.1,2.1.9,4.5,2.8,4.5,5.4-.1,1.5-.7,2.9-1.6,4.1,1.1-1.2,1.7-2.7,1.7-4.3,0-1-.3-2-.8-2.8,1.2.6,2.5,1.3,2.5,2.8,0,.6-.2,1.2-.3,1.8-.8,1.6-4.6,6.3-6.4,6.3s-.7-.8-.7-1.1v-.6c.5,0,.9-.1,1.1-.5l.9.3c.6,0,1.1-.4,1.2-1-.2.4-.6.6-1,.7-.3,0-.6-.1-.8-.3-.4.4-.8.6-1.3.7-.6,0-1.1-.4-1.1-1l.2-.7c.5,0,1-.2,1.3-.6.2.3.6.6,1,.6.6,0,1.1-.4,1.3-.9-.3.3-.7.5-1.1.6-.4,0-.7-.2-1-.4l.2-.3c-.5.5-1.1.8-1.8.9-.7,0-1.3-.3-1.3-1.1v-.7c.5.2.9.3,1.3.3.7.1,1.4-.4,1.5-1.1,0-.2,0-.3,0-.5v-.2c0,.7-.3,1.5-1.1,1.5-.5,0-1.1-.3-1.5-.7l.4-.4c-.3.4-.8.6-1.2.7-.5-.4-.9-.9-1.1-1.6,0-.4.2-.9.4-1.2h.7c0,.6.2,1.2.8,1.2.7,0,1.4-.3,1.9-.8-.4.2-.9.4-1.5.4-.7,0-.8-.2-.7-.8h0c.7-.3.8-1.1,1.8-1.1h-.3c-.8,0-.7.9-1.9.9-.6,0-1.2-.3-1.6-.9-.6-.1-1.1-.4-1.1-.9,0-.3.2-.6.3-.9h.6c.2.9.9,1.4,1.7,1.3.8,0,1.5-.4,2-1-.6.4-1.3.6-2,.6-.5,0-.9-.3-1.1-.8l1.5-.6h-1.3c-.7.1-1.5,0-1.5-.8,0-.4.1-.8.3-1.1h.7c0,.5.5.8,1,.8,0,0,0,0,0,0,.4,0,.7-.2,1-.4l.7-.7M212.7,42.9l.8-.2c0,1,.6,1.9,1.5,2.4h-1.3c0,.1-.9-2.1-.9-2.1M212.7,42.9l.2,1.2.6,1.1h-1l-.4-1-.3-1.1M211.2,48.6h0c0-.1.4-.1.4-.1l-.4-.3h.7-.3c0,0-.2-.3-.2-.3h.7l-.6-.2h.1c0-.1.7-.1.7-.1l-.6-.2.2-.2.8.2-.6-.3h.7c.9-.1,1.3.8,1.5,1.7-.4.3-.9.5-1.5.6l-.8-.2-.7-.4M210.9,41v-3.4h.7v3.4M211.8,49.3l1,.2c.7,0,1.3-.3,1.8-.7h.2c0,.7-1.6,1.1-2,1.1-.7,0-1.3-.3-1.8-.7h.4c0,.1-.6-.5-.6-.5l.9.5M211.6,44.1l.4,1h-.8c-.3-.7-.4-1.4-.4-2.1.2.1.4,0,.7,0l.2,1.1M210.2,43h.4l.2,2h-.7c-.2-.1-.2-.6-.2-.8l.2-1.2M209.9,30.3l-.2.3c0,.8,1.2,1,1.8,1.1,0-.3-1.2-.7-1.2-1.1s1.6-.6,1.8-.7h-1.7c0,.1-.5.3-.5.3M209.6,40.5v-3.2h.7v3.6M209.4,21.2h.8c0,.1,1.3-.2,1.3-.2.2.4.6.6,1,.8.6.1,1.1.4,1.6.8l3.5,1.6,3.4,1.2c-.1.3-.1.7,0,1-.8-.7-1.6-1.2-2.6-1.6l-9-3.6M210,27.7l-.7.2c-.2.1-.4.3-.4.6,0,.6.7,1.1,1.1,1.5,0-.3-.7-.9-.7-1.3,0-.7,1.2-.8,1.6-.8h-.9M209.3,56.1l.6-.7.8-1.5h.2c.4,0,.7.1.7.6,0,.7-1.8,2.7-2.5,2.7s-.4-.3-.6-.7l.7-.4M208.3,39.9v-3.1l.6.3v3.1M208.4,24.9l-.3.2v.4c-.1.7.7,1.2,1.1,1.5-.4-.4-.8-.9-.9-1.5,0-.4,1.2-.7,1.6-.7h-.7c0-.1-.8,0-.8,0M208.3,21.7h-.5c0,.1-.2.4-.2.4,0,.8,1.2,1.2,1.8,1.3-.2-.2-1.3-1-1.3-1.3l.9-.2-.7-.2M207,38.4v-2.5l.7.4v2.8M207.9,17.7l.8.2h.8c0,0,1.1.8,1.1.8-.9.3-1.9.6-2.9.7-.8,0-1.5-.6-1.6-1.3l1.7-.3M206.2,37.3l-.3-.3v-1.9l.4.4v2.1M207.9,46.5l.3-.4-2.4-.3h-1.6c0-.1,1.6.2,1.6.2M205,16l.4.3h.5c0,.1,1,.3,1,.3,0,.5.4.8.8,1h-1.8c-1.1.1-2.5,0-2.5-1.3v-.3h1.6M206.5,47.8l.4-.4h-1.1c0-.1-2.6-.4-2.6-.4l2.6.7M205.1,48.8l.3-.3-2.5-.3M204.2,28.8l.7.3h1c.5,0,.9,0,1.3-.3.4.4,1,.6,1.6.6h.2c-.8-.1-1.8-.4-1.8-1.5,0-.4,0-.7.3-1-.3-.2-.9-.7-.9-1,0-.8,1.1-1.3,1.1-1.8,0-.7-1.6-1.3-1.6-2.6l.2-.9,4.8,1.9v.8c-.1.4,0,.9.4,1.1v.9c-.1.5,0,1.1.5,1.5-.2.3-.3.7-.3,1.1,0,.8.8,1.2,1.5,1.5l.3.3c-.3.4-.5.8-.6,1.2,0,.8,1.1,2.1,2,2l-.2.8c0,.8.6,1.4,1.3,1.5,0,0,0,0,0,0v.6c0,.5.3,1,.8,1.2h0c0,.1.1.4.1.4l-1.8.2c-.9,0-2-.2-2-1.3l.2-.9h-.9c-.9,0-1.7-.1-1.7-1.1-.4.2-.9.3-1.3.2-.2,0-1.9-.4-1.9-.9s1.2-.9,1.6-1c.3,1,1.6,1.2,2.3,1.2v-.4h-.4c-1.1,0-1.9-.2-1.7-1.5-.4,0-.8-.2-1-.6-.6.5-1.4.7-2.1.7h-.4c-.4-.4-.6-.9-.4-1.3l-1.1.3c-.8,0-1.5-.5-1.6-1.3,0-.2,0-.3,0-.5h.7c0-.1.7-.4.7-.4M204.1,28.7l-1,.4-1,.2c-.5,0-1-.3-1-.9,0,0,0,0,0-.1v-.2h.2c.8-.1,1.7-.3,2.5-.7v.4c-.1,0,0,.5,0,.5l.3.4M201.3,13l.6.5h0c0,1,.7,1.5,1.6,1.5h1c0-.1.2.7.2.7-1.3-.2-4.1-.8-4.1-2.7l.2-.7.5.7M202.7,25.3l.3.3c.4.2.8.4,1.3.3h2.2c0-.1.6.7.6.7v1.1c-.1,0,0,.9,0,.9h-1.2c-.7-.1-2-.3-2-1.2l.2-.4h-.1c-.7.2-1.5.4-2.2.4-.6,0-1.2,0-1.2-.7v-.7c.1,0,2.2-.8,2.2-.8M201,33v.2c0,0-.3.1-.3.1-.2,0-.3-.2-.3-.3,0-.2,0-.3.2-.3,0,0,0,0,0,0h.3c0,0,0,.3,0,.3M201,48.6h-.4c-.1.5-.4,1.1-.8,1.5l.8-.6.4-.8M201.1,47.1v-1.5h.2c.3.4,0,1.7,1,1.7s.8-1.6.8-2.1l1.1-.8h1.7c0,.1,2.4.7,2.4.7.9.2,1.8.2,2,1.2-1,1.1-2.1,2-3.2,2.8l-1.1,1h-1.3l1.2.3.2.4h-.1c-.4.1-.9.1-1.3,0,.4.3.8.4,1.2.3h.4l.8.8c-.3.4-.4.8-.4,1.2.2-.4.4-.7.8-1l.2.2c-.3.4-.4.8-.4,1.2l.8-.9h.3c-.3.4-.5.8-.6,1.2l.8-.9,1.8.7v.2l-.2.6c-.3.7-1,1.6-1.6,1.6-.3,0-.6-.2-.9-.3l-.4.6h-.1c-.3-1.1-.1-1.8-1.1-2.8-1.2-1.1-2.6-2-4.1-2.7-.6-.2-2.1-.2-2.1-.9.2-.7.4-1.4.7-2,.2,0,.5,0,.6-.3l.2-.7M201.6,56.8l1.4.5,1.4.2c.5,0,1-.1,1.5-.3.3-.2.5-.6.6-.9.1.4.2.7.7.7s.6-.2.6-.3c.3,0,.5,0,.8,0h0c0,.5.2.9.6.9,0,0,.1,0,.2,0,1-.1,1.9-.7,2.3-1.6h.8c0-.1.3.1.3.1,0,0-1.8,2-2.5,2-.3,0-.5-.2-.6-.4,0,.5.2,1,.6,1.3-1.4-.6-2.9-.9-4.4-1h-.3c-1.6,0-3.1.4-4.5,1.2v-.2c0-.5.4-1,.8-1.3-.8-.6-1.7-1-2.7-1.1v-1.1c-.1,0,1.1.8,1.1.8l1.4.7M213.9,19.7h.4c1.5,0,2.9-.6,3.9-1.7-1,.8-2.2,1.2-3.5,1.3-.8,0-1.5-.4-1.9-1,.9-.4,1.8-1,2.5-1.7-1,.8-2.1,1.3-3.4,1.5-.6,0-1.3.1-1.7-.6,1-.4,2-.8,2.9-1.3-1.3.6-2.8,1-4.2,1.1-.6,0-1.3-.2-1.3-.9,1.1-.3,2.2-.8,3.2-1.3-1.3.5-2.6.9-4,1-.4,0-.7,0-1-.2-.4-.3-.7-.8-.7-1.3l.7-.2,1.3-.7-1.3.4c-.6.2-1.3.3-2,.3-.4,0-1.1-.1-1.1-.7h0c0-.1.3-.1.3-.1,1-.1,1.9-.4,2.8-.8l.4-.3-.4.2c-.9.4-1.8.6-2.8.7-.9,0-1.7-.6-1.9-1.5h.7c.8,0,1.7-.1,2.5-.4h-1.6c-1.3.1-4.5-.4-4.5-2.3l.2-.7.5-.6,3.4,2.1,3.6,1.9,5.8,2.9c2.6,1,8.6,2.6,10.2,4.7-.5.2-.9.6-1.1,1l-1.1.2c-.3,1-2.9,1.5-3.8,1.5-.5,0-1-.4-1-.9,0,0,0,0,0-.1l.6-.4h.3c1.8,0,3.5-.2,4.3-2-.8,1.2-2.2,1.8-3.6,1.7h-1c-.6.4-1.3.7-2.1.8-.4,0-.8-.1-1.1-.4l1.8-1.1-1.8.8c-.6.2-1.2.3-1.9.3-.8,0-1.4-.5-1.5-1.3,0,0,0,0,0,0,.7-.2,1.4-.4,2-.8h.6c0,.1.8,0,.8,0l.9.6.9.4M198.8,33.8l-.3.3c-.3,0-.4-.2-.4-.3,0-.3.1-.4.4-.4h.2c0,0,.1.4.1.4M199.7,24.1l.3.5c.5.4,1.1.7,1.7.7h.9c0-.1,0,0,0,0l-1.5.5-1.7.2c-.4,0-2.2,0-2.2-.9,0-.4.3-.8.6-1.1h2M199,56.6l.8.2c-.8.2-1.5.7-2,1.3l.8.2c.2.1.4.2.4.4,0,.3-.3.6-.7.6-.7,0-1.2-.6-1.2-1.2,0-.7.5-1.3,1.2-1.5h.7M196,34.7v.4c-.1,0-.4,0-.4,0-.2,0-.3-.1-.3-.4,0-.2,0-.3.3-.3,0,0,0,0,0,0h.3c0,0,.1.3.1.3M195.9,34.1l-.8.3-.3.8c0,.4.3.8,1,.8.5,0,.9-.3.9-.8,0-.3,0-.5-.3-.8l-.6-.3M196.8,29.4h1.1s-1.3-.3-1.3-.3c-1,0-2.6.8-2.8,1.7.5-.6,1.1-1.1,1.9-1.2l1.1-.2M193.6,29.4l1.4-.7c1-.3,2-.5,3-.3-.4-.3-.9-.4-1.5-.3-1.7,0-3.2.9-4.1,2.4l1.2-1M193.1,34.9v.3c-.1,0-.4.1-.4.1-.2,0-.4-.3-.3-.6,0-.2.2-.3.3-.3h.3c0,.1.1.4.1.4M193.5,40.7h-.3c0-.1-.1,0-.1,0,0,.3-.6.9-1,1.1l.9-.4.6-.7M192.9,34.4l-.6.2-.3.6c0,.5.4,1,.9,1,.5,0,1-.5,1-1,0-.2-.1-.4-.3-.6l-.7-.2M192.3,41.2l.3-.5.2-.6h-.3c-.2.6-.6,1.2-1.1,1.8l.9-.6M191.8,29.4l1.3-.9c.8-.5,1.7-.9,2.6-1.2.9-.4,1.9-.5,2.9-.6l1.2.2c.1.4.4.7.8.9v.2c0,.6.4,1,1,1.1l1.6,2.9c1,1.9,1.5,4,2.7,5.9,1.1,1.7,2.9,3.4,5,3.4s4.6-2.1,6.2-3.8c0,.5.2,1,.7,1.2-.9,1-1.8,1.8-2.9,2.6-1.2.7-2.5,1.1-3.9,1.1-2,0-3.9-1-5-2.6-1.3-1.9-2-4.1-3-6.3-.6-1.1-1.7-3.2-3-3.7.4.2.7.5,1,.9h-.2c-2.5,0-4.7,1.6-7.2,1.6-1.2,0-2.3-.6-2.8-1.7l.3-.6.8-.8M191.6,32.4l.8.3h1c2.5.1,5-1.5,7.5-1.7l.8,1.2h-.7c-2.6-.1-4.9,1.8-7.5,1.8-1.5,0-2.8-.9-3.4-2.2l.4-.9.3.9.6.6M191.9,17.3l.9.3c.7,1.2,2,1.9,3.4,1.9-.6.5-1.4.7-2.2.7-2.5,0-4.4-1.3-4.4-3.9v-.6c.5.5,1,.9,1.5,1.2l.8.4M191.4,26.9v.2l-.5.3h-.7c-.3,0-1.5-.1-1.5-.7h.4c0-.1.8,0,.8,0h1.4M191.2,29.5l-.7.4c-.5.2-1,.4-1.6.4-.2,0-.7,0-.7-.3s2.8-.7,3.4-1h.1c0,.1-.5.6-.5.6M191.4,27.9l-.2.3c-.4.2-.9.3-1.3.3-.3,0-1.8-.1-1.8-.7s.1-.4.3-.4l1.1.3.9.2h1M191.4,28.4v.2c-.8.4-1.8.6-2.8.7-.6,0-.7-.1-.7-.7l.2-.2c.4.2.9.2,1.3.1h1.9M205.6,21.8l-1.3.3h-1.4c-.9.2-1.8-.1-2.4-.8l1.9-.8c-.8.4-1.7.6-2.6.6-1.2,0-2.3-.7-3-1.7.9,0,1.8-.3,2.7-.7-.8.2-1.6.3-2.3.3-1.5,0-2.9-.2-3.7-1.6h.1c.9,0,1.9,0,2.7-.6-.7.2-1.4.3-2.1.3-1.5,0-3-.6-4-1.8h3.2l-1.9-.2c-2.4-.3-5.7-.9-5.7-2.7l.3-1,9.8,4.4,9.9,4.2v.3l-.2.6v.6s.7,1,.7,1l.6.6.4.3.3.4c0,.4-1.3,1-1.1,1.7h-.7c0,.1-.7.1-.7.1-.8.1-1.6-.2-2.1-.9l1.6-.6c-.8.3-1.7.5-2.6.4-.8,0-1.6-.2-1.8-1l1.3-.7c-.6.3-1.3.5-2,.4-.9,0-1.8-.3-2.3-1.1l1.2-.7c-.8.3-1.7.4-2.6.4-.9,0-1.7-.6-1.9-1.5.9-.2,1.7-.6,2.2-1.3.8,1.3,2.3,2.1,3.8,2,.4.9,1.7,1.1,2.6,1.1.7.8,1.7,1.2,2.7,1.2l1.2-.2.5-.2h-1.1c-.9.2-1.8-.2-2.5-.8l1.2-.3,1.1-.5M187.8,26l-.3.3v.4c-1.3-.1-3.6-1.5-3.6-2.9s.6-.7,1-.4l2.9,2.7M186.8,27.3l-.3.7c-1.1-.1-4.7-2-4.7-3.2,0-.5.4-.8.8-.8.2,0,.4,0,.5.2.7.6.9,1.3,1.8,2l1.9,1.2M181.6,18.8l.8.3c.6.7,1.2,1.5,1.6,2.4h-.4c-.3,0-.7,0-.9.3-.7-.6-1.2-1.4-1.3-2.3v-.4s.3-.3.3-.3M181.6,18v.3c-.1,0-.4.1-.4.1-.2,0-.4-.2-.4-.4,0-.2.1-.4.4-.4,0,0,0,0,0,0h.3c0,.1.1.4.1.4M183.3,27.1l.6.3c.8.5,1.6.9,2.5,1.1-.1.2-.1.5,0,.7-1,0-5.7-1.5-5.7-2.6s.2-1.2.6-1.2l2.1,1.7M182.2,28.3l2.3,1,1.8.5.3.6h-.7c-1.2,0-6.2-.4-6.2-2.2s.2-.7.4-.7l1.9.9M180.5,17.6l-.2.5-.5.2c-.4,0-.7-.3-.7-.6,0,0,0,0,0,0,0-.4.3-.6.7-.7l.5.2.2.5M179.1,18.6l.8.3.7.6c.8.7.7,1.7,1.1,2.6-.4,0-.9.6-1.2.8-.9-.8-2.2-2.1-2.2-3.4l.2-.7.6-.2M179.3,25.5v-.2c-.1-.8.5-1.4,1.2-1.5,0-.8.8-1.4,1.6-1.3,0,0,.1,0,.2,0,.1-.5.6-.8,1.1-.8.6,0,1.2.4,1.6,1h-.7c0,.1-.6-.1-.6-.1-.4,0-.8.6-.9.8h-.3c-.9,0-1.1.7-1.2,1.5,0,0-1.2,1.2-1.1,2-.4.1-1,.3-1,.9,0,.3.2.7.4.9-.3.2-.2.4-.2.8-.4-.2-1.1-.3-1.1-.9,0-.3.1-.5.3-.7-.3-.3-.4-.7-.3-1.1,0-.5.2-.9.6-1.2l.4-.2M179,17.5v.4c-.3.3-.6.5-1,.5-.5,0-.9-.4-.9-.9,0-.5.4-.9.9-.9.4,0,.7.2.9.5v.4M177.3,19.6l.5.4c.9,1.1,1.8,2.2,2.6,3.4-.6,0-.9.4-1,1-1.1-.8-3.6-2.4-3.6-3.7,0-.6.4-1.2,1.1-1.2,0,0,0,0,0,0h.4M175,58l2.1-1.1c1.8-.8,3.8-1.3,5.9-1.3,2.7,0,5.3.9,7.4,2.7-1-.4-2-.5-3-.4-1.3.2-2.5.5-3.7,1l1.8-1.6h-1c-1.8.1-3.6.6-5.3,1.3l1.3-1.6c-.9,0-1.7,0-2.6.2l-2.9.7M177.1,18v.5c-.3.5-.8.8-1.3.8-.7,0-1.3-.6-1.3-1.3s.6-1.3,1.3-1.3h0c.5,0,1,.3,1.2.8v.5M178.9,25.1l-.4.3-.3.4c-.9-.4-3.7-1.7-3.7-2.8s.4-1.5.9-1.5,1,.8,1.7,1.6l1.8,2M174.4,24.1l3.5,2c-.2.4-.2.8-.1,1.2-1.2-.1-3.7-1.1-3.7-2.6v-.4c0,0,.3-.3.3-.3M174.4,19.1l.7.3.2.8c0,.4-.4.8-.8.8,0,0,0,0,0,0-.6,0-1-.3-1-.8,0-.3,0-.6.3-.8l.7-.3M174.5,21.2l.2.4c0,.4-.2.8-.7.8-.4,0-.6-.4-.5-.8,0-.3.3-.6.7-.6l.4.2M174.3,23v.3c-.1,0-.4.1-.4.1-.3,0-.5-.3-.4-.6l.3-.3h.4c0,.1.2.4.2.4M196.6,24.7l-1.1-.2c-1.2-.2-2.1-1.2-2.1-2.3l.2-.9c.3.7,1,1.3,1.8,1.4h.8c0,0,.4.6.4.6l.6.4-.4.5-.3.6v.2c0,1.3,2.3,1.6,3.2,1.3v.4c-1.1-.4-2.3-.5-3.5-.6-1.4,0-2.7.2-4,.4l-.2.6c0,.4.3.8.6,1.1l-.2.2c-.4,0-.8-.7-.8-1.1l.3-.8h-.3c-.9,0-1.7-.2-2.5-.7l-.2.4c-.3,0-.6.2-.7.6-.4,0-.6.4-.5.8,0,0,0,.1,0,.2-.2.1-.3.3-.3.6,0,.2,0,.5.2.7-.2,0-.3.2-.3.4,0,.3.2.5.4.6v.3h-.1c-.4.1-.7-.2-.7-.6,0,0,0,0,0-.1-.2-.2-.3-.4-.3-.7,0-.2.1-.5.3-.6l-.2-.5c0-.3.2-.6.4-.7v-.2c-.1-.2.1-.6.3-.6h0c0-.3.3-.5.5-.5,0,0,0,0,0,0,.1-.3.3-.3.6-.3-2.8-1.5-4.8-4.5-6-7.3-.2-.4-.8-1.8-1.5-1.8h-.2c-.5-.4-1.2-.6-1.8-.4-.4-.4-.8-.6-1.3-.6-.3,0-.8.1-.9.3l-1.3-.3c-1,0-1.9.7-1.9,1.7,0,0,0,.1,0,.2v.8c-.5.2-.8.6-.8,1.1l.2,1.1c-.1,0-.3.2-.3.6l.2.7v.7c-.1,0,.2,1.3.2,1.3,1.8,5,7.5,6.9,12.3,6.9,1.7,0,3.5-.2,5.1-.7-1,1.7-1.8,3.6-2.4,5.5-.2,1.7-1.1,3.2-2.5,4.1-1.5,1-3.4.8-5,1-1.9.2-4.4,1.3-4.4,3.6s1.1,1.9,1.1,2.8-2.6,1.7-2.6,3.6,1.7,2.6,2.7,3c-.6-.4-1-1-1.1-1.7,0-2,4.8-1,4.8-3.8s-2.2-2.9-2.2-4.7v-.4c1.7-1,5-.3,7.4-1.3,1.5-.6,2.6-1.8,3.3-3.2l.5-1.6.2-1v-1c-1.1,5.1-3.1,7.1-8.1,7.2h-2.2c-1.1.3-1.8,1.3-1.8,2.3l.6-1.1v.2c0,1.8,2.1,3,2.1,4.7s-3.5,1.7-4.5,2.9c.7-2.2,4.1-1,4.1-3.2,0-.4-.2-.7-.4-.9v.4c.2.6-.3,1.2-.9,1.2v-.7c.1-1.7-1.5-2.6-1.5-3.7,0-.3.1-.6.3-.9-.4.3-.7.7-.8,1.2,0,1,.9,1.6.9,2.5s-1.2,1.2-1.9,1.7c.6-.6,1.5-.9,1.5-1.7,0-1.1-1.1-1.2-1.1-2.5,0-2.1,2.2-3.4,4-3.6,1.8-.3,3.7.2,5.3-1,2.5-1.7,2.8-5.6,3.9-8.4.3,1.8,2.2,2.5,3.7,2.5,1.6,0,3.1-.5,4.5-1.1-.3.1-.5.4-.4.8,0,.5.3.9.8.9.5,0,.9-.4.9-.9,0,0,0,0,0,0,0-.5-.4-.9-.9-.9,0,0,0,0,0,0l2.1-.7c-.3.2-.4.5-.4.8,0,.4.3.7.8.7.4,0,.7-.3.8-.7,0-.4-.4-.7-.8-.8h.8c1.5,2.7,1.9,6.2,4.1,8.5,1,1,2.2,1.7,3.6,1.9v1c-.1,0,0,1,0,1-1.2-.2-2.4-.5-3.6-1-.4-.3-.7-.7-.7-1.2-.2.8-.9,1.5-1.7,1.8l-.9.6v.8c.1.3.1.9-.2,1-.9,0-.2-1.6-1.1-1.6s-.1,2.4-.9,2.4-.6-2-1-2c-.7,0-.1,2.5-.9,2.5s-.4-2-1.2-2-.4,1.8-1.1,1.8-.4-1.7-.6-2.1h-1c2.4-.6,4.5-2,5.9-4h.2c.6,0,1.2-.4,1.5-.9-.3.3-.7.4-1.1.4h-.4l.2-.3c.7-.2,1.2-.7,1.5-1.3-.3.5-.7.7-1.2.8l.3-1.5c-1.2,3.5-3.6,5.4-6.9,6.6-.8.2-1.5.6-2.2,1-.5.5-.9,1.1-1,1.8-.5.3-1,.5-1.6.6h1.5v.3c-.5.3-1.1.5-1.7.6.5.1,1.1.1,1.6,0v.4c-.5.3-1,.4-1.6.3.5.1,1,.2,1.6.1,0,.6.1,1.1.3,1.7h0c0,.1.6,0,.6,0,.3,0,.6.2.7.6,0,1.1-2.9,2.6-3.8,2.6s-.6-.1-.6-.4v-.6c1.1,0,2.1-.5,2.8-1.2l.4-.8-.4.7c-.8.6-1.7.9-2.6,1-.1-.8-.6-.7-1.1-.7s-.8-.1-.8-.6c0-.9,2.6-4.9,2.6-7s-.8-1-.8-1.6c0-1.1,3.1-1.1,3.1-4.3,0-.7-.2-1.5-.5-2.2l-.4-.6.5,1.1.2,1.3c0,3.5-3.4,2.8-3.4,4.6s.8,1,.8,1.6c0,2-2.6,5.8-2.6,7s.9,1,1.7,1h.1c.2.1.2.3.3.6v.7c-.1,0,0,.6,0,.6l.6.3,1-.2c1-.3,1.9-.9,2.7-1.7.2,0,.4.3.4.6,0,.8-2.8,2.1-3.7,2.1h-.3c0-.1-.1-.4-.1-.4v-.3.4c0,0,0,.4,0,.4-1.8-1-3.8-1.6-5.8-1.6-3.7,0-7.2,1.4-9.9,3.9,2.1-.9,4.3-1.4,6.5-1.7-.6.7-1.1,1.4-1.6,2.1,1.6-.9,3.4-1.4,5.3-1.7l1-.2-3.2,2.8c1.9-.9,4.5-2.1,6.6-2.1,1.1,0,2.2.2,3.2.3l-.4-.8c1.1.4,2.2.6,3.4.6.2,0,.5,0,.7,0-.5-.5-.9-1.1-1.2-1.8l.2-.4c.4,0,.9,2,2.2,2h.6c0-.1-2.6-3.7-2.6-3.7-.2-.3-.6-.6-1-.6l.2-.9c0-.5-.3-.9-.8-1,0,0,0,0,0,0h-.7c0,.1,0-1.3,0-1.3,0-2.5.4-3.9,2.8-4.7h1.2c0,.6-.1,2.1.8,2.1s.8-1.6,1.1-1.9h.1c.1.8.2,2,1.1,2s.9-1.2.9-1.8c.1.4.3,1.3.8,1.6-.5.6-.8,1.3-1,2v.2c0,.7.8.8,1.3.9,2,.5,3.9,1.6,5.4,3.1.3.5.5,1.1.4,1.7,0,.2-.2.6-.4.6-.4.2-.8.3-1.2.3-2.6,0-5-1.3-6.5-3.4,0,1,.2,2,.6,2.9h-.2c-1-.1-1.9.5-2,1.5,0,0,0,.2,0,.3,0,1,.8,1.9,1.9,1.9,0,0,0,0,0,0,.7,0,1.3-.4,1.3-1.1,0-.4-.3-.8-.7-1.1.3-.2.7-.4,1.1-.3h.9c-.5.4-.7.9-.7,1.5l.2,1c1-1,3.8-1.7,5.3-1.7h.4c1.5,0,2.9.2,4.3.8.7.3,1.5.4,2.2.3l2.3-.2-2.1-1.6.2-.2c.8,0,1.5,1.1,2.1,1.3l.2-.3c0-1.1-2.5-3.2-3.6-3.2v-.8c.1-.7-.3-1-1-1l-.8.2c-.7-.3-3.9-2.7-3.9-3.5l1.7-1.3c1.1-.8,2.8-2,3.2-3.4h1.1v1c-.9.3-1.4,1.1-1.5,2l-.4.4c0,.6,1.2,1.1,1.7,1.2,0,.4.3.7.6.7,0,0,0,0,0,0,.3,0,.4-.3.6-.7.4-.1,1.7-.7,1.7-1.2,0-.2-.2-.4-.4-.4,0-1-.7-1.8-1.7-2v-.9c1.6,0,5.1-.3,5.9-1.8h1.1c.2.4.7.7,1.2.7,1,.7,1.8,1.6,2.4,2.7.4,1.1-.1,2.6,1.7,2.5.9,1.1,2.2,3.1,2.2,4.5h0c-.3.4-.5.8-.4,1.2,0,.7.6,1.3,1.4,1.2,0,0,0,0,0,0h.8c0-.1.3.3.3.3v.2l-1.3.2c-1.1,0-2.5-.6-2.5-1.8,0-.3,0-.6.2-.9h-.4c-1.2-.1-2.2.7-2.4,1.9,0,.2,0,.3,0,.5l.3,1.3h-.9c-.7,0-2.5-.2-2.5-1.1s1.7-1.2,1.7-2.3-.6-.9-1.1-1.1c.5-.4,1.1-.6,1.8-.6.7,0,1.5.3,2,.8-.8-1.7-1.9-2.9-3.9-2.9-2.3.2-4.1,2.1-4.1,4.5,0,2.8,2,4.4,4.8,4.4h1.1c0,1,.6,1.7,1.3,2.1,1.1-1.6,3.6-1.3,5.3-1.3,1.2,0,2.4-.4,3.4-1.2l2.2.2h1c-.5-.6-.9-1.2-1.2-1.8l.3-.4c.6.5,1.1,1.1,1.6,1.8.3,0,.5-.2.6-.5,0,0,0,0,0,0,0-.4-.2-.7-.6-.9.9-.5,1.9-.7,2.9-.7l1.7.2-1.7.7c-.6.7-1,1.6-1,2.6v.9c.3-.6.6-1.1,1-1.6.5-.2,1.1-.3,1.7-.3l3.8.3,2.3-.3,2.3-.6c.6.3,1.2.5,1.9.4.7,0,1.4-.2,2.1-.4h-.1c-.7,0-1.7-.4-1.7-1.1,0-.3.2-.6.4-.7h1.2c.8.1,1.6,0,2.3-.4l-.3,3.2c1.8-1.8,4.2-2.8,6.7-2.8.8,0,1.6.1,2.4.4,1,3.1,4.4,2.8,5.3,4.5.6-1,2.1-1.3,3.1-2,1-.5,1.7-1.4,2-2.5.8-.3,1.6-.5,2.5-.4,2.5,0,4.9,1,6.6,2.8,0-1.1,0-2.2-.2-3.2.7.3,1.5.5,2.2.6.8,0,1.6-.2,2.3-.4.3.4.5.9.4,1.3,0,.9-.6,1.6-1.5,1.7-.1,0-.3,0-.4,0h1.5c1.3.1,3.4-.1,3.2-1.9,1.3,0,3.1.4,3.1,2,0,.6-.2,1.2-.4,1.7,1.4-.7,2.2-2.2,2-3.8h1c1.3.6,2.7,1,4.1,1,1.2,0,3.4-.4,3.7-1.9l1.1-.2h.2c.7-.1,1.3.3,1.5.9,0,.2,0,.4,0,.5.3-.4.5-.8.6-1.3,0-.6-.4-1.2-1-1.5,1.4-.6,2.9-.9,4.4-.9.8,0,1.8.1,1.8,1.1s-2,1-2.8.9c.8,1.5,2.9,1.9,4.4,1.6l.2.8c0,1-1.8,1.2-2.6,1.3.7.2,1.5.3,2.2.2,1.1,0,3.6-.3,3.9-1.8,1.2,1.7,3.2,2.7,5.3,2.7,1.3,0,2.7-.2,3.5-1.5.7.4,1.5.6,2.2.6,1.3,0,5.8-.8,6.6-2h3.1c1.6.2,3.2.6,4.7,1.1,2.5.9,5.2,2,7.8,2,1.6,0,3.1-.5,4.2-1.6,3,.4,6.2,1.6,9.2,1.6s6.8-1.3,6.8-5-1.9-3.7-4.3-4c1,.4,1.7,1.3,1.7,2.4-.8-.2-1.6-.3-2.4-.2h-1.6c1.2.3,2.6,1.1,2.6,2.6s-1.5,2.7-3.1,2.7h-2.1c1.1-.1,3.6-.3,3.6-1.9,0-.6-.3-1.1-.7-1.6v-.4c0-.6-.4-1.2-1-1.5h-.2c0,.1-.3-.7-.3-.7-.3-1.1-.8-2.2-1.5-3.1-1-1.7-3.1-3.7-3.1-5.6s1.9-4.8,2.6-6.7l.7-2.7c.2-1.1.3-2.2.3-3.2v-1.2c-.1,0-.1.4-.1.4-3-.2-5.3-2-7.4-3.9l-.3-2.5c1.6,1.6,4.5,5.1,6.8,5.1h.3c-2.3-.7-5.5-3.7-7.3-5.4-.2-2.5-.8-4.9-1.1-7.5,3.3,1.8,6.1,4.3,8.2,7.5,2.6,4.1,4,8.9,3.9,13.8v1.6c0,1.9,1.6,2.9,1.6,4.5s-.2.6-.6.6c-.7-2.1-1.6-2-1.7-4.8v.8c-.1,2.4,1.3,3.5,1.3,4.5s-.1.4-.4.4c-.9-2-1.9-2-1.9-4.7s.3-3.1.3-4.7c0-1.6-.3-3.1-.9-4.5l-.8-1.2.7,1.3c.5,1.3.8,2.7.8,4.1,0,1.7-.4,3.1-.4,4.8,0,3.1,2.3,4.6,2.3,6.6,0,.5-.3,1-.6,1.5h.3c1.4-.8,2.3-2.4,2.5-4,0-1.8-1.2-2.3-1.9-3.8-.4-1.1-.1-2.7-.1-3.9,0-1-.1-2-.3-2.9-.5-4.2-2.2-8.2-4.7-11.6-5.4-6.4-14.3-9.9-22.4-11-3.1-.4-6.2-.7-9.3-.7-.9-.6-2-1-3.1-1.1-1-1.9-2.9-3.2-5-3.2-.8,0-1.6.2-2.3.6-1.1-.5-2.3-.8-3.6-.8-2.2,0-3.8,1.6-5,3.4-1.7,2.5-3.8,3.4-5,6.3-.4,1.2-.7,2.5-.8,3.8-.6.4-1.9,1.7-1.9,2.5s.8.6,1.1.7c-.6,1.2-1,2.5-1.2,3.8-.9,0-1.9-.7-2.8-.7s-.7.1-.7.6c0,.9,1.9,1.9,2.6,2.1-.8,2-1.2,4.1-1.4,6.2,0,3.6,1.1,7.2,5,8.1h1.1c2,0,3.8-1,4.9-2.7,1-.6,3.4-1,3.4-2.5s-1.2-.8-1.8-.8h-.6c-.1-.6-.7-2.4-1.3-2.4-1,0-1.1,1.8-1.1,2.5-.8.8-1.8,1.4-2.9,1.6-1.1,0-1.3-.9-1.3-1.8,0-2.7,2.1-5.3,4-6.9l-.2,1.3.2.6c.4,0,2.5-2.8,4.5-2.8s2.3.3,3.6.3c.9,0,1.8-.1,2.7-.4v.3c0,.3.1.7.3.9-.3.3-.4.6-.4,1,0,.2.2.4.4.7l-.2.7c0,.3,0,.6.3.8-.2.4-.3.8-.3,1.2,0,.5.3,1,.8,1.1-1.1,4-9.3,4-10.3,10.2v-.3c-.7.1-1.2.4-1.2,1.1l.2.8c-.7.2-1.7.8-1.7,1.7,0,1.3,2.7,2.2,3.7,2.6h-.9c-2.1-.1-4.2.6-5.8,2l-.6.4h0c0-.8-.4-1.5-1.1-1.7.5-1,.7-2.1.8-3.2v-.8c-.6.7-1.3,1.3-2.1,1.7-.5-1.3-1.3-2.4-2.2-3.4v1.3c.2,2-.5,4-2,5.4-.6.6-1.3,1.1-2,1.6v-.3c0-1.2-.4-2.4-1.1-3.4-.6,2-1.8,4-4.1,4-.7,0-1.4-.1-2-.4v-.2c0-.9-.2-1.8-.6-2.6.8-.7,1.9-1.2,3-1.2.4,0,.9,0,1.2.2v-.8c0-1.3-.7-2.5-1.8-3.2,1.6-.9,3.5-1.3,5.4-1.2h2.8c-1.5-1.3-3.5-2-5.6-1.9-.9,0-1.8.1-2.7.3l1.8-2.3c.4-.1.4-.3.8-.7,1-.9,2.2-1.5,3.5-1.9h.9c-.8-.4-1.6-.6-2.5-.7l-1.6.2c.8-1.4,2.1-2.4,3.6-2.9-.5-.2-1.1-.3-1.7-.3-1,0-1.9.2-2.7.8,1.1-2.8,2.3-5.4,4.7-7.4h-.6c-1.7,0-3.5,1.5-4.6,2.8,1.5-3.3,3.4-6.5,5.5-9.5-4.3,1.1-6.8,5.4-8.5,9.1,1.7-5.3,4.8-9.7,8.2-14-4.1,1-6.9,4.7-9.2,8.2v-5.9l1.1.2c1.3,0,2.5-1.1,2.5-2.4,0,0,0-.1,0-.2,0-.9-.4-1.8-1.1-2.5-1.2-1.3-2.5-2.9-3.8-4.1-.4-.3-.8-.4-1.2-.4-.8,0-1.5.5-2,1.1-1.2,1-2.6,1.7-4,2.2l-1.7.4c-1.2-2.5-3.4-4.4-5.9-5.4-1-.4-2.1-.5-3.1-.6-3.8,0-7.3,2.2-9.2,5.6h-.3c-1.5-.6-2.8-1.4-4-2.4-.5-.6-1.3-1.1-2.1-1.1-.4,0-.7.2-1,.4-1.5,1.2-2.6,2.8-3.9,4.1-.7.6-1.1,1.5-1.1,2.5,0,1.3,1,2.5,2.3,2.6,0,0,.1,0,.2,0l1-.2v5.9c-2.1-3.5-4.9-7.2-9.2-8.2,3.6,4.3,6.6,8.7,8.3,14-1.8-3.7-4.4-8-8.5-9.1,2.1,3,3.9,6.2,5.4,9.5-1.1-1.8-3-2.8-5-2.8,2.5,2,3.6,4.6,4.7,7.4-.8-.5-1.7-.8-2.7-.8-.6,0-1.1.1-1.7.3,1.5.6,2.8,1.6,3.7,2.9l-1.7-.2c-.9,0-1.7.3-2.5.7,1.9,0,2.9.8,4.4,1.9.1.3.4.6.8.7l1.8,2.3c-.9-.2-1.9-.3-2.8-.3-2.1,0-4.1.6-5.7,2l2.6-.2c1.9,0,3.8.4,5.5,1.2-1.5.9-2.5,2.4-2.7,4.1.4-.2.8-.3,1.2-.2,1.1,0,2.2.5,3,1.2l-.6,2.5c-.8.4-1.8.6-2.7.7-1.8,0-4.6-.9-4.6-3.1,0-1.3.7-2.5,1.8-3.2h-1.1c-1.6-.1-2.9,1.2-2.9,2.8,0,0,0,0,0,.1l-.9,1.2-.2,1v.8c-.5-.4-1.3-.5-2-.6-1,.1-2,.3-2.9.7-.4-.4-.9-.7-1.5-.9.3-.4.5-.9.4-1.3,0-1-1.1-1.1-1.9-1l-1.7-3.5c.2-.2.3-.5.2-.8,0-1.2-.9-1.8-1.2-2.8h1.2c2.6.1,4.7-1.7,7.4-1.7v.3l-1.1,1h-.1c-.6.1-1,.6-1.1,1.2l.2.3c-.4,0-1.1.2-1.1.7s.4.4.6.8c-.9.5-1.5,1.4-1.5,2.5,0,.7.1,1.5.4,2.1.9-.4,1.8-1,2.4-1.8-.1.7-.3,1.4-.6,2,1.6-.6,2.1-1.6,2.6-3.1.3,0,.5-.3.6-.6h.9c.6-.2,1.1-.7,1.1-1.3,0-.6-.3-1.1-.8-1.3h0c0-1.2,2.2-2.7,2.2-4.7s-1.5-1.7-2.6-1.9c-1.4-.1-2.8-.3-4.2-.7l.4-.6c.8-.4,1.4-1.2,1.5-2.1,0-.7-.3-1.4-.7-2,.2-.3.3-.6.3-.9,0-.4-.3-.8-.6-1.1,0-.8-.3-1.5-1-1.9.4-.8.7-1.7.7-2.6,0-2-1.1-3.8-2.7-4.9l1.3-1.5c.7-.1,3.2.1,3.2-1.2l-.3-1.1c.9-.1.9-.6.9-1.3l.2-.3v-.4c-.1,0-.1-.1-.1-.1,0-.7.9-.6.9-1.1-.4-.9-.9-1.7-1.5-2.5-.2-.8-.2-1.7-.1-2.6,0-.7-.2-1.4-.7-1.9v-.5c0-.4-.2-.7-.6-.9,0-1.3-.2-2.8-1.9-3v.4c.1,0-.2,1.6-.2,1.6-.9-.3-1.8-.5-2.7-.6-1,0-1.9.2-2.8.6v-.7c-.2-.4,0-.8.1-1.2-1.4.6-2.3,1.9-2.4,3.4-1.9,1.5-2.8,4-2.5,6.4-.1-.2-.6-.3-.8-.3-.6,0-1.1.3-1.6.7l.2.4c-.7,0-1.4.4-1.8,1,.3.5.8.8,1.3.9l-.4,1,1.8.4-.6,1h-.1c-2.1-2.4-5.8-3.4-8.7-4.5-2.6-1-5.1-2.3-7.5-3.8l-7.1-4.3c-.7.5-1.1,1.4-1.2,2.2,0,1.5,1.7,2.5,2.9,2.7l-.3,1.5c0,1.6,1.5,2.2,2.7,2.5v.3c0,1.6,1.5,2,2.8,1.9,0,.3,0,.6.2.8.6.7,1.5,1,2.4.8,0,.6.1,1,.6,1.2l-2.9-1.2c-6.5-2.8-13.2-5.4-19.7-8.4-.4.5-.6,1.1-.7,1.8,0,1.9,2.7,2.4,4,2.6v1.3c-.3,2,1.2,3.8,3.2,3.9.2,0,.4,0,.6,0-.2.4-.3.9-.3,1.3,0,1.4,1.2,2.2,2.4,2.4h1.2M164.7,44.1h-1c-2.5,9.4-6,13.9-15.3,13.9s-11.8-1.5-11.8-12.4v-13.7h5c6.7,0,11,1.5,11.5,9.5h.9l-.2-10.9.2-9.7h-.9c-.6,7.3-5.9,9.2-11.9,9.2h-4.7V5.5h3.6c5.9,0,14.6.2,18.2,6.4,1.2,2.4,2.1,5,2.5,7.6h.9c-.2-3.4-.2-6.5-.2-9.9l.2-6.7c-9.2,1.1-18.9.9-28.1.9l-15.6-.2v1c6.2.3,8.3,1.1,8.3,8.2v38.1c0,6.9-2.2,7.7-8.3,8.2v.9c5.8-.2,11.8-.2,17.6-.2,9.1,0,18.4-.1,27.5.9l.6-8.2.9-8.2M113,59.9v-.9c-6-.4-8.4-1.2-8.4-8.2V12.8c0-6.9,2.2-7.8,8.4-8.2v-1l-13.6.2-13.3-.2v1c6.3.3,8.3,1.1,8.3,8.2v16.9h-14.5c0,.1-10.9.1-10.9.1V12.8c0-6.9,2.2-7.8,8.4-8.2v-1l-13.4.2-13.3-.2v1c6.2.3,8.3,1.1,8.3,8.2v38.1c0,6.9-2.2,7.7-8.3,8.2v.9l13.3-.2,13.4.2v-.9c-6-.4-8.4-1.2-8.4-8.2v-19.4h12.3c0-.1,13.1,0,13.1,0v19.4c0,6.9-2,7.7-8.3,8.2v.9l13.3-.2,13.5.2M47.6,20.7v-11.2c-.1,0,0-6.5,0-6.5-2.9.4-5.9.5-8.8.6h-10.6c0,.1-8.5.1-8.5.1h-10.9c-2.9-.1-5.8-.3-8.7-.7v6.5c.1,0,0,11.2,0,11.2h.8c1.9-9.3,3.6-15.3,15.9-15.3h1.8l.2,16.2v29.2c0,6.2-2.2,7.6-9.4,8.2v.9l14.6-.2,14.4.2v-.9c-7.1-.6-9.5-2-9.5-8.2v-29.2l.2-16.2h2c11.2,0,14,6.6,15.7,15.3h.9"/>
</svg>