<svg xmlns="http://www.w3.org/2000/svg" width="20" height="20" viewBox="0 0 20 20">
  <g id="Group_2683" data-name="Group 2683" transform="translate(-115.173 -1232.056)">
    <g id="Page-1" transform="translate(116.995 1234.207)">
      <g id="Dribbble-Light-Preview" transform="translate(0 0)">
        <g id="icons">
          <path id="whatsapp-_128_" data-name="whatsapp-[#128]" d="M256.94,7450.55a2.3,2.3,0,0,1-1.606,1.153c-.428.09-.986.163-2.865-.613-2.111-.875-5.042-3.992-5.042-6.061,0-1.056.609-2.29,1.673-2.29.512,0,.625.016.793.417.2.474.678,1.652.735,1.767.236.5-.24.785-.586,1.211a.39.39,0,0,0-.1.515,7.229,7.229,0,0,0,1.327,1.644,6.014,6.014,0,0,0,1.918,1.187.513.513,0,0,0,.577-.091,9.184,9.184,0,0,0,.64-.85.457.457,0,0,1,.586-.172,16.348,16.348,0,0,1,2.086,1.047,2.032,2.032,0,0,1-.139,1.137M252.181,7439h0A8.189,8.189,0,0,0,244,7447.18a8.1,8.1,0,0,0,1.557,4.793l-1.019,3.042,3.143-1.005a8.1,8.1,0,0,0,4.5,1.35,8.179,8.179,0,0,0,0-16.358" transform="translate(-244 -7439.001)" fill-rule="evenodd"/>
        </g>
      </g>
    </g>
    <rect id="Rectangle_1499" data-name="Rectangle 1499" width="20" height="20" transform="translate(115.173 1232.056)" fill="none"/>
  </g>
</svg>
